if (_typeface_js && _typeface_js.loadFace) _typeface_js.loadFace({"glyphs":{"S":{"x_min":85,"x_max":793.3125,"ha":876,"o":"m 670 732 q 609 751 628 732 q 589 817 589 771 l 589 888 q 581 891 586 889 q 566 895 575 893 q 497 909 533 905 q 425 914 462 914 q 342 898 377 914 q 285 858 308 882 q 251 802 262 833 q 240 741 240 772 q 248 680 240 706 q 278 635 257 655 q 336 598 300 615 q 428 561 372 580 q 485 540 463 548 q 525 525 507 532 q 560 511 542 518 q 605 493 578 504 q 647 474 631 482 q 675 459 663 466 q 698 443 687 451 q 724 423 709 435 q 775 361 757 398 q 793 269 793 323 q 767 160 793 210 q 691 75 741 111 q 569 20 641 40 q 404 0 496 0 q 315 6 364 0 q 223 23 267 12 q 145 45 179 33 q 99 71 111 58 q 89 112 89 82 l 89 195 q 148 262 89 262 q 209 241 189 262 q 229 174 229 221 l 229 100 q 399 71 317 71 q 499 86 455 71 q 574 127 544 101 q 621 185 605 152 q 638 254 638 218 q 622 318 638 291 q 570 370 606 346 q 478 417 534 394 q 342 468 422 440 l 287 491 q 258 503 270 497 q 236 514 246 508 q 215 526 226 520 q 192 539 205 531 q 145 576 165 556 q 112 620 125 596 q 93 671 99 643 q 85 733 87 700 q 107 836 85 790 q 173 916 130 883 q 277 967 216 949 q 415 985 338 985 q 672 944 532 985 q 700 934 689 939 q 718 921 711 928 q 727 904 724 914 q 730 879 730 894 l 730 799 q 670 732 730 732 "},"/":{"x_min":55.609375,"x_max":861.34375,"ha":931,"o":"m 859 984 l 141 -277 q 123 -286 135 -286 q 102 -281 113 -286 q 80 -270 90 -277 q 62 -256 69 -264 q 55 -241 55 -248 q 56 -234 55 -238 l 773 1034 q 791 1043 777 1043 q 813 1038 800 1043 q 835 1026 825 1033 q 853 1009 846 1018 q 861 992 861 1000 q 859 984 861 988 "},"ђ":{"x_min":-6.78125,"x_max":720.953125,"ha":804,"o":"m 577 323 q 574 409 577 373 q 563 479 571 445 q 539 532 554 512 q 500 564 524 552 q 442 576 476 576 q 325 522 382 576 q 267 402 267 468 l 267 98 q 247 19 267 39 q 179 0 227 0 q 135 15 147 0 q 123 65 123 31 l 123 782 l 9 782 q -2 791 2 782 q -6 815 -6 801 q 9 850 -6 850 l 123 850 l 123 990 q 135 1039 123 1023 q 179 1055 147 1055 q 246 1028 225 1055 q 267 942 267 1002 l 267 850 l 550 850 q 562 839 558 850 q 567 815 567 829 q 562 792 567 802 q 550 782 557 782 l 267 782 l 267 527 l 270 527 q 366 628 309 588 q 494 669 424 669 q 572 659 538 669 q 634 627 605 650 q 681 565 663 604 q 710 466 699 527 q 720 323 720 406 q 639 -42 720 95 q 417 -200 558 -181 q 391 -191 403 -200 q 379 -168 379 -183 q 406 -130 379 -141 q 536 15 495 -93 q 577 323 577 125 "},"y":{"x_min":41.375,"x_max":669.40625,"ha":711,"o":"m 662 627 l 422 10 q 393 -60 408 -23 q 357 -132 377 -97 q 314 -198 337 -166 q 263 -254 290 -230 q 205 -292 236 -278 q 137 -306 173 -306 q 89 -291 109 -306 q 70 -255 70 -276 q 145 -193 70 -193 q 211 -182 184 -193 q 258 -149 238 -171 q 294 -93 278 -127 q 323 -12 309 -58 l 48 627 q 43 642 45 635 q 41 659 41 650 q 92 697 41 697 q 157 674 127 697 q 206 604 187 651 l 388 150 l 396 150 l 479 393 q 506 478 490 424 q 544 609 522 531 q 573 673 555 650 q 625 697 590 697 q 669 665 669 697 q 662 627 669 647 "},"g":{"x_min":72,"x_max":725.109375,"ha":789,"o":"m 365 -250 q 451 -235 412 -250 q 520 -198 491 -221 q 565 -144 549 -174 q 582 -83 582 -114 q 562 -24 582 -47 q 510 12 542 -1 q 435 33 477 26 q 350 45 394 40 q 264 54 306 50 q 187 67 221 59 q 103 108 135 81 q 72 177 72 136 q 79 209 72 195 q 99 235 86 223 q 131 257 112 246 q 174 277 150 267 q 216 296 199 288 q 242 311 233 305 l 242 316 q 197 343 216 326 q 165 383 178 361 q 146 429 152 405 q 140 477 140 453 q 163 579 140 537 q 226 647 187 620 q 315 685 265 673 q 418 697 365 697 q 463 694 439 697 q 511 685 487 691 q 556 672 534 680 q 592 654 577 664 q 603 666 600 657 q 608 688 606 675 q 613 713 610 700 q 622 737 616 726 q 641 756 629 749 q 676 763 654 763 q 710 746 695 763 q 724 705 724 728 q 645 613 724 660 q 697 485 697 557 q 674 400 697 438 q 614 334 652 361 q 526 291 576 306 q 420 276 475 276 q 309 288 349 276 q 279 268 294 276 q 254 251 265 259 q 237 234 244 243 q 230 210 230 224 q 236 191 230 200 q 259 175 242 183 q 306 162 276 167 q 384 154 336 156 q 533 134 470 150 q 640 93 597 118 q 704 32 683 67 q 725 -43 725 -1 q 696 -148 725 -100 q 616 -231 668 -196 q 491 -286 564 -266 q 327 -306 418 -306 q 224 -293 270 -306 q 145 -257 178 -280 q 94 -203 112 -234 q 77 -135 77 -172 q 91 -75 77 -101 q 124 -31 105 -49 q 164 -3 144 -13 q 199 6 185 6 q 222 -1 214 6 q 230 -21 230 -9 q 223 -34 230 -26 q 207 -55 216 -42 q 191 -85 199 -68 q 184 -124 184 -102 q 198 -176 184 -153 q 237 -215 212 -199 q 294 -241 261 -232 q 365 -250 327 -250 m 554 488 q 544 550 554 522 q 518 598 535 578 q 475 629 501 618 q 418 641 450 641 q 319 598 355 641 q 283 482 283 556 q 292 420 283 448 q 318 372 301 392 q 361 341 336 352 q 418 331 386 331 q 474 342 449 331 q 517 375 499 354 q 544 424 534 396 q 554 488 554 453 "},"е":{"x_min":69,"x_max":673.75,"ha":729,"o":"m 604 175 q 619 186 610 182 q 639 191 628 191 q 661 182 651 191 q 671 161 671 174 q 653 114 671 135 q 397 0 560 0 q 254 22 316 0 q 151 88 192 45 q 89 192 110 131 q 69 331 69 254 q 152 604 69 511 q 394 697 235 697 q 509 678 457 697 q 597 624 560 660 q 653 537 633 589 q 673 417 673 484 q 595 350 673 350 l 220 350 q 219 336 220 344 q 219 319 219 328 q 231 211 219 259 q 266 130 242 164 q 326 78 290 96 q 412 61 362 61 q 482 71 453 61 q 532 97 511 82 q 567 129 552 112 q 591 159 581 146 l 604 175 m 385 641 q 276 584 318 641 q 224 408 233 527 l 485 408 q 520 416 509 408 q 532 448 532 425 q 520 531 532 495 q 488 591 508 567 q 441 628 468 615 q 385 641 415 641 "},"–":{"x_min":111,"x_max":986,"ha":1097,"o":"m 959 347 l 137 347 q 117 362 124 347 q 111 398 111 377 q 117 435 111 419 q 137 451 124 451 l 959 451 q 978 435 971 451 q 986 398 986 419 q 978 362 986 378 q 959 347 971 347 "},"б":{"x_min":76.640625,"x_max":712.8125,"ha":782,"o":"m 712 348 q 624 88 712 176 q 394 0 537 0 q 266 19 321 0 q 166 84 210 39 q 99 209 122 128 q 76 402 76 289 q 106 707 76 589 q 200 893 136 826 q 372 987 265 960 q 427 1001 389 991 q 495 1018 465 1010 q 530 1027 524 1025 q 561 1038 539 1030 q 599 1050 582 1046 q 633 1055 616 1055 q 657 1047 647 1055 q 668 1023 668 1040 q 656 975 668 996 q 624 940 644 954 q 570 913 604 925 q 501 893 537 901 q 416 877 466 885 q 273 822 326 862 q 193 707 219 783 q 166 509 166 631 l 176 509 q 421 697 244 697 q 536 678 484 697 q 628 619 587 659 q 690 510 668 579 q 712 348 712 441 m 225 348 q 263 129 225 202 q 394 56 302 56 q 459 70 430 56 q 505 109 488 84 q 535 163 522 134 q 552 227 547 191 q 560 290 558 263 q 562 348 562 318 q 560 393 562 371 q 554 450 558 415 q 538 513 549 484 q 510 568 526 541 q 464 609 493 594 q 398 625 435 625 q 306 584 347 625 q 245 481 266 543 q 225 348 225 418 "},"ƒ":{"x_min":-83.421875,"x_max":777.921875,"ha":736,"o":"m 122 659 q 137 688 126 681 q 166 697 148 695 l 266 697 q 317 839 287 779 q 374 928 347 898 q 440 985 402 958 q 657 1055 539 1055 q 745 1034 712 1055 q 777 987 777 1014 q 763 945 777 961 q 723 930 748 930 q 694 937 707 930 q 671 954 680 944 q 652 975 661 965 q 629 992 642 985 q 597 1000 615 1000 q 551 991 573 1000 q 506 962 529 982 q 463 901 482 941 q 432 802 443 860 l 409 697 l 563 697 q 607 670 607 697 q 594 643 607 655 q 560 631 582 631 l 396 631 l 297 168 q 151 -166 252 -44 q 58 -258 115 -211 q -41 -306 0 -306 q -70 -299 -57 -306 q -83 -282 -83 -293 q -38 -225 -81 -247 q -10 -209 -18 -214 q 14 -193 -3 -205 q 55 -147 31 -180 q 100 -50 80 -115 q 130 61 120 13 l 251 631 l 172 631 q 133 637 145 631 q 122 659 122 644 "},"e":{"x_min":69,"x_max":673.75,"ha":729,"o":"m 604 175 q 619 186 610 182 q 639 191 628 191 q 661 182 651 191 q 671 161 671 174 q 653 114 671 135 q 397 0 560 0 q 254 22 316 0 q 151 88 192 45 q 89 192 110 131 q 69 331 69 254 q 152 604 69 511 q 394 697 235 697 q 509 678 457 697 q 597 624 560 660 q 653 537 633 589 q 673 417 673 484 q 595 350 673 350 l 220 350 q 219 336 220 344 q 219 319 219 328 q 231 211 219 259 q 266 130 242 164 q 326 78 290 96 q 412 61 362 61 q 482 71 453 61 q 532 97 511 82 q 567 129 552 112 q 591 159 581 146 l 604 175 m 385 641 q 276 584 318 641 q 224 408 233 527 l 485 408 q 520 416 509 408 q 532 448 532 425 q 520 531 532 495 q 488 591 508 567 q 441 628 468 615 q 385 641 415 641 "},"у":{"x_min":41.375,"x_max":669.40625,"ha":711,"o":"m 662 627 l 422 10 q 385 -76 404 -36 q 339 -160 367 -115 q 283 -235 311 -204 q 216 -285 255 -265 q 137 -306 178 -306 q 89 -291 109 -306 q 70 -255 70 -276 q 145 -193 70 -193 q 265 -141 227 -193 q 323 -12 297 -97 l 48 627 q 41 659 41 642 q 92 697 41 697 q 157 674 127 697 q 206 604 187 651 l 388 149 l 396 149 l 479 393 q 544 609 500 455 q 573 673 555 650 q 625 697 591 697 q 669 665 669 697 q 662 627 669 648 "},"J":{"x_min":49,"x_max":567.5625,"ha":672,"o":"m 503 985 q 551 968 535 985 q 567 915 567 952 l 567 362 q 564 297 567 335 q 549 219 560 259 q 517 139 539 179 q 460 69 496 100 q 371 18 424 37 q 244 0 318 0 q 201 2 226 0 q 152 9 176 5 q 107 18 128 13 q 76 29 87 23 q 49 72 49 42 l 49 165 q 63 218 49 202 q 108 235 78 235 q 169 214 149 235 q 189 144 189 193 l 189 76 q 218 73 203 74 q 247 72 232 72 q 330 91 297 72 q 382 142 362 111 q 409 212 401 173 q 417 289 417 251 l 417 894 q 437 964 417 943 q 503 985 458 985 "},"Ј":{"x_min":49,"x_max":567.5625,"ha":672,"o":"m 503 985 q 551 968 535 985 q 567 915 567 952 l 567 362 q 564 297 567 335 q 549 219 560 259 q 517 139 539 179 q 460 69 496 100 q 371 18 424 37 q 244 0 318 0 q 201 2 226 0 q 152 9 176 5 q 107 18 128 13 q 76 29 87 23 q 49 72 49 42 l 49 165 q 63 218 49 202 q 108 235 78 235 q 169 214 149 235 q 189 144 189 193 l 189 76 q 218 73 203 74 q 247 72 232 72 q 330 91 297 72 q 382 142 362 111 q 409 212 401 173 q 417 289 417 251 l 417 894 q 437 964 417 943 q 503 985 458 985 "},"Ѓ":{"x_min":139.03125,"x_max":744.6875,"ha":765,"o":"m 288 911 l 288 90 q 267 20 288 41 q 202 0 246 0 q 139 69 139 0 l 139 915 q 202 985 139 985 l 661 985 q 724 945 704 985 q 744 796 744 905 l 744 253 q 730 60 744 121 q 685 0 715 0 q 624 98 644 0 q 604 420 604 196 l 604 911 l 288 911 m 601 1290 l 454 1086 q 403 1064 436 1064 q 374 1071 385 1064 q 364 1090 364 1078 q 366 1103 364 1098 l 446 1301 q 477 1327 454 1318 q 528 1337 500 1337 q 585 1327 564 1337 q 606 1303 606 1318 q 601 1290 606 1296 "},"ў":{"x_min":41.375,"x_max":669.40625,"ha":711,"o":"m 662 627 l 422 10 q 385 -76 404 -36 q 339 -160 367 -115 q 283 -235 311 -204 q 216 -285 255 -265 q 137 -306 178 -306 q 89 -291 109 -306 q 70 -255 70 -276 q 145 -193 70 -193 q 265 -141 227 -193 q 323 -12 297 -97 l 48 627 q 41 659 41 642 q 92 697 41 697 q 157 674 127 697 q 206 604 187 651 l 388 149 l 396 149 l 479 393 q 544 609 500 455 q 573 673 555 650 q 625 697 591 697 q 669 665 669 697 q 662 627 669 648 m 436 903 q 464 951 441 936 q 518 966 486 966 q 559 950 541 966 q 577 905 577 933 q 518 809 577 846 q 354 772 459 772 q 191 809 250 772 q 132 906 132 846 q 151 950 132 934 q 193 966 170 966 q 246 951 224 966 q 274 903 269 936 q 298 845 280 865 q 354 825 315 825 q 412 845 393 825 q 436 903 430 866 "},"^":{"x_min":105.765625,"x_max":601.546875,"ha":708,"o":"m 354 825 l 244 697 q 207 675 231 683 q 158 667 183 667 q 121 673 136 667 q 105 688 105 679 q 109 697 105 691 l 308 932 q 352 956 326 956 q 398 932 377 956 l 597 697 q 601 688 601 691 q 585 672 601 678 q 548 665 569 665 q 497 674 522 665 q 461 697 473 682 l 354 825 "},"ґ":{"x_min":111.234375,"x_max":581.921875,"ha":582,"o":"m 111 631 q 123 681 111 665 q 166 697 134 697 l 454 697 l 454 769 q 470 841 454 823 q 530 858 486 858 q 570 844 559 858 q 581 800 581 830 l 581 674 q 537 632 581 632 l 255 632 l 255 98 q 235 19 255 39 q 166 0 215 0 q 123 15 134 0 q 111 65 111 31 l 111 631 "},"D":{"x_min":139,"x_max":889.34375,"ha":962,"o":"m 139 915 q 202 985 139 985 l 401 985 q 889 497 889 985 q 866 326 888 400 q 808 197 845 252 q 723 104 771 142 q 622 43 675 66 q 513 10 569 20 q 408 0 458 0 l 202 0 q 139 69 139 0 l 139 915 m 384 912 l 288 912 l 288 73 l 384 73 q 520 99 457 75 q 630 173 584 123 q 704 304 677 224 q 732 497 732 384 q 705 688 732 610 q 632 817 679 767 q 521 889 585 867 q 384 912 458 912 "},"к":{"x_min":111.234375,"x_max":691.78125,"ha":720,"o":"m 255 583 l 255 399 l 301 399 l 544 640 q 599 684 575 671 q 647 697 622 697 q 686 662 686 697 q 665 615 686 636 q 593 561 644 595 q 510 499 542 527 q 393 392 478 472 l 666 70 q 691 26 691 41 q 688 12 691 17 q 669 4 685 8 q 625 0 653 0 q 558 9 579 0 q 519 42 537 19 l 288 334 l 255 334 l 255 98 q 235 19 255 39 q 166 0 215 0 q 123 15 134 0 q 111 65 111 31 l 111 631 q 123 681 111 665 q 166 697 134 697 q 234 670 213 697 q 255 583 255 644 "},"ц":{"x_min":111.234375,"x_max":781.984375,"ha":803,"o":"m 654 0 l 166 0 q 123 15 134 0 q 111 65 111 31 l 111 631 q 123 681 111 665 q 166 697 134 697 q 234 670 213 697 q 255 583 255 644 l 255 65 l 531 65 l 531 598 q 551 677 531 658 q 620 697 571 697 q 664 681 652 697 q 676 631 676 665 l 676 65 l 737 65 q 781 22 781 65 l 781 -107 q 770 -151 781 -137 q 730 -166 759 -166 q 670 -148 686 -166 q 654 -76 654 -131 l 654 0 "},"Л":{"x_min":27.8125,"x_max":861.34375,"ha":1000,"o":"m 797 985 q 861 915 861 985 l 861 69 q 847 15 861 31 q 800 0 832 0 q 734 27 756 0 q 711 107 711 54 l 711 911 l 384 911 l 384 771 q 372 460 384 586 q 328 238 360 333 q 294 162 316 201 q 242 85 272 123 q 171 24 212 48 q 87 0 130 0 q 45 23 62 0 q 27 75 27 46 q 41 111 27 100 q 103 139 54 123 q 234 287 194 170 q 263 424 253 343 q 274 570 272 506 q 275 766 275 634 l 275 915 q 289 969 275 953 q 336 985 303 985 l 797 985 "},"w":{"x_min":41.375,"x_max":1024.796875,"ha":1067,"o":"m 555 697 q 584 691 573 697 q 605 672 596 686 q 622 632 614 658 q 641 566 630 607 l 754 136 l 760 136 l 825 323 q 847 398 836 354 q 870 484 859 441 q 889 561 881 526 q 901 608 897 595 q 913 643 907 627 q 929 671 920 659 q 950 690 938 683 q 980 697 963 697 q 1024 665 1024 697 q 1018 627 1024 642 l 809 34 q 729 0 797 0 q 655 34 668 0 l 536 467 l 527 467 l 380 34 q 299 0 368 0 q 226 34 239 0 l 48 627 q 41 659 41 644 q 92 697 41 697 q 129 691 111 697 q 162 674 147 686 q 189 645 177 663 q 206 604 201 627 l 324 136 l 331 136 l 396 324 q 418 397 406 355 q 444 492 430 439 l 476 606 q 492 652 484 634 q 508 679 499 669 q 528 693 516 689 q 555 697 539 697 "},"$":{"x_min":45,"x_max":692.109375,"ha":736,"o":"m 578 732 q 522 751 539 732 q 504 818 504 771 l 504 889 q 494 891 500 889 q 482 896 489 893 q 442 905 460 901 q 409 911 424 909 l 409 541 q 526 491 474 515 q 615 438 578 467 q 672 371 652 409 q 692 278 692 332 q 674 177 692 224 q 621 94 656 130 q 533 35 586 59 q 409 4 480 12 l 409 -133 q 397 -155 409 -147 q 367 -163 384 -163 q 337 -155 350 -163 q 325 -133 325 -147 l 325 0 q 246 7 289 0 q 165 24 203 14 q 97 46 126 34 q 58 71 67 58 q 49 112 49 83 l 49 195 q 103 262 49 262 q 159 241 140 262 q 177 174 177 221 l 177 100 q 325 71 250 73 l 325 451 l 255 480 q 170 521 209 499 q 103 572 131 543 q 60 640 76 601 q 45 733 45 679 q 63 832 45 787 q 118 909 82 876 q 206 960 154 941 q 325 983 258 979 l 325 1099 q 337 1121 325 1113 q 367 1129 350 1129 q 397 1121 384 1129 q 409 1099 409 1114 l 409 982 q 487 969 445 979 q 581 944 530 960 q 606 933 595 939 q 622 921 616 928 q 631 904 628 914 q 634 879 634 893 l 634 799 q 578 732 634 732 m 187 742 q 193 686 187 710 q 216 643 200 663 q 258 608 232 624 q 325 575 285 592 l 325 911 q 265 888 291 905 q 222 849 240 872 q 196 798 205 826 q 187 742 187 770 m 549 254 q 541 304 549 282 q 517 345 534 326 q 474 380 500 364 q 409 415 447 397 l 409 81 q 469 107 443 90 q 513 148 495 125 q 539 198 530 171 q 549 254 549 225 "},"\\":{"x_min":69.171875,"x_max":874.90625,"ha":931,"o":"m 788 -277 l 70 984 q 69 992 69 988 q 76 1010 69 1000 q 94 1026 84 1019 q 117 1038 105 1033 q 139 1043 129 1043 q 156 1034 152 1043 l 873 -234 q 874 -241 874 -238 q 867 -256 874 -248 q 850 -270 860 -264 q 828 -281 840 -277 q 807 -286 816 -286 q 788 -277 794 -286 "},"о":{"x_min":69,"x_max":704.890625,"ha":775,"o":"m 386 0 q 252 21 311 0 q 152 87 193 43 q 90 195 111 130 q 69 348 69 261 q 91 502 69 436 q 155 611 113 568 q 255 675 196 654 q 386 697 313 697 q 519 675 460 697 q 620 610 578 654 q 683 502 661 567 q 704 348 704 436 q 683 195 704 261 q 622 87 662 130 q 522 21 581 43 q 386 0 462 0 m 386 56 q 455 68 424 56 q 508 113 485 81 q 542 202 530 146 q 555 348 555 259 q 542 491 555 434 q 507 581 529 547 q 454 627 485 614 q 386 641 423 641 q 321 627 351 641 q 268 581 290 614 q 232 491 245 547 q 219 348 219 434 q 231 206 219 263 q 264 116 242 150 q 317 69 286 83 q 386 56 348 56 "},"Д":{"x_min":0,"x_max":946.125,"ha":982,"o":"m 805 0 l 140 0 l 140 -141 q 120 -210 140 -189 q 59 -232 100 -232 q 0 -162 0 -232 l 0 22 q 18 62 0 51 q 79 73 37 73 l 92 73 q 205 315 175 155 q 234 766 234 476 l 234 915 q 248 969 234 953 q 295 985 263 985 l 756 985 q 805 968 789 985 q 820 915 820 951 l 820 74 l 862 74 q 926 63 906 74 q 946 22 946 52 l 946 -162 q 886 -232 946 -232 q 825 -210 845 -232 q 805 -141 805 -189 l 805 0 m 344 771 q 319 355 344 521 q 222 74 294 189 l 670 74 l 670 911 l 344 911 l 344 771 "},"’":{"x_min":83,"x_max":294,"ha":378,"o":"m 116 724 l 169 836 q 124 851 141 840 q 98 878 108 863 q 86 908 89 892 q 83 935 83 923 q 92 979 83 960 q 117 1010 102 998 q 152 1029 133 1023 q 192 1036 172 1036 q 230 1029 211 1036 q 262 1011 248 1023 q 285 982 277 999 q 294 943 294 964 q 264 837 294 899 l 206 713 q 154 676 188 676 q 125 686 137 676 q 113 712 113 697 q 116 724 113 717 "},"ъ":{"x_min":18.3125,"x_max":794.203125,"ha":834,"o":"m 62 697 l 349 697 q 394 684 383 697 q 405 638 405 672 l 405 401 l 534 401 q 733 352 672 401 q 794 210 794 304 q 716 54 794 108 q 495 0 639 0 l 316 0 q 272 15 284 0 q 261 65 261 31 l 261 635 l 145 635 l 145 583 q 129 511 145 528 q 69 494 113 494 q 29 508 40 494 q 18 552 18 522 l 18 654 q 62 697 18 697 m 404 62 l 490 62 q 605 95 567 62 q 644 205 644 128 q 604 310 644 281 q 490 339 565 339 l 404 339 l 404 62 "},"-":{"x_min":69,"x_max":537,"ha":607,"o":"m 509 298 l 96 298 l 94 298 q 75 315 81 298 q 69 353 69 332 q 75 391 69 374 q 94 409 81 409 l 96 409 l 509 409 q 530 392 523 409 q 537 353 537 375 q 530 314 537 331 q 509 298 523 298 "},"ѕ":{"x_min":67.828125,"x_max":626.75,"ha":686,"o":"m 485 169 q 457 237 481 211 q 381 284 433 263 l 302 313 l 248 332 q 183 359 214 345 q 129 394 152 374 q 91 443 105 414 q 78 512 78 471 q 91 581 78 551 q 127 630 105 610 q 177 664 149 651 q 234 684 205 677 q 289 694 263 691 q 335 697 316 697 q 443 686 396 697 q 522 658 490 675 q 572 617 555 640 q 588 569 588 594 q 572 532 588 546 q 534 519 556 519 q 489 531 508 519 q 459 569 471 544 q 336 641 425 641 q 248 613 281 641 q 215 532 215 586 q 223 499 215 513 q 243 472 231 484 q 269 451 255 460 q 299 436 284 442 l 338 420 l 384 404 q 421 391 403 397 q 458 379 440 385 q 493 363 476 372 q 528 344 510 355 q 565 319 548 332 q 596 289 583 305 q 618 252 610 273 q 626 206 626 232 q 605 122 626 160 q 546 56 584 84 q 455 14 508 29 q 339 0 402 0 q 239 9 288 0 q 152 35 191 18 q 91 78 114 53 q 67 136 67 103 q 72 156 67 147 q 84 172 77 166 q 102 183 92 179 q 122 187 111 187 q 198 137 175 187 q 215 109 205 123 q 241 82 225 94 q 281 63 257 70 q 341 56 305 56 q 398 62 372 56 q 443 83 424 69 q 474 119 463 97 q 485 169 485 140 "},"Q":{"x_min":74,"x_max":921.34375,"ha":994,"o":"m 764 491 q 761 568 764 524 q 750 659 759 612 q 724 752 741 706 q 677 833 707 797 q 602 891 647 869 q 495 914 558 914 q 394 892 436 914 q 322 837 352 871 q 275 759 293 803 q 247 668 257 714 q 234 575 237 621 q 230 491 230 529 q 233 416 230 459 q 244 325 236 372 q 271 233 253 279 q 317 151 288 187 q 390 93 347 115 q 495 71 434 71 q 590 87 550 71 l 489 209 q 475 230 479 220 q 472 247 472 240 q 487 278 472 266 q 525 290 502 290 q 609 244 574 290 l 681 160 q 764 491 764 271 m 921 491 q 914 392 921 447 q 888 281 907 337 q 835 172 869 225 q 749 79 801 120 l 837 -27 q 846 -48 846 -37 q 828 -75 846 -64 q 786 -86 811 -86 q 740 -75 760 -86 q 702 -44 720 -65 l 645 22 q 495 0 578 0 q 329 27 398 0 q 213 98 259 54 q 138 196 166 141 q 96 305 110 251 q 78 409 82 360 q 74 491 74 458 q 78 578 74 527 q 98 683 83 628 q 141 792 113 738 q 216 889 169 846 q 331 958 263 932 q 495 985 400 985 q 660 958 591 985 q 776 887 729 931 q 852 790 824 844 q 896 681 881 736 q 916 576 911 626 q 921 491 921 526 "},"Ш":{"x_min":139.03125,"x_max":1258.109375,"ha":1397,"o":"m 1194 0 l 202 0 q 139 69 139 0 l 139 915 q 153 969 139 953 q 200 985 167 985 q 266 957 243 985 q 288 877 288 930 l 288 74 l 623 74 l 623 901 q 644 967 623 949 q 710 985 664 985 q 773 915 773 985 l 773 74 l 1108 74 l 1108 894 q 1129 964 1108 943 q 1194 985 1150 985 q 1242 968 1226 985 q 1258 915 1258 951 l 1258 69 q 1242 16 1258 33 q 1194 0 1226 0 "},"M":{"x_min":139,"x_max":1078.390625,"ha":1218,"o":"m 1021 0 q 958 26 978 0 q 938 107 938 53 l 938 780 l 928 780 l 643 51 q 585 0 623 0 q 550 12 566 0 q 525 51 535 25 l 258 780 l 248 780 l 248 78 q 243 40 248 55 q 229 16 238 25 q 211 3 221 7 q 191 0 201 0 q 155 14 171 0 q 139 62 139 28 l 139 911 q 146 943 139 929 q 167 966 154 957 q 195 980 179 975 q 227 985 211 985 q 255 981 240 985 q 285 970 271 978 q 312 949 300 962 q 332 917 324 936 l 599 181 l 606 181 l 894 911 q 915 945 902 932 q 942 968 927 959 q 974 981 957 977 q 1007 985 990 985 q 1061 967 1043 985 q 1078 911 1078 949 l 1078 69 q 1066 15 1078 31 q 1021 0 1053 0 "},"ј":{"x_min":-24,"x_max":274,"ha":380,"o":"m 118 631 q 129 681 118 665 q 173 697 141 697 q 240 674 219 697 q 262 602 262 651 l 262 168 q 248 24 262 93 q 209 -103 234 -44 q 151 -209 185 -162 q 77 -282 117 -255 q 18 -306 43 -306 q -11 -298 0 -306 q -24 -276 -24 -291 q -19 -255 -24 -263 q -7 -238 -15 -246 q 13 -223 0 -231 q 45 -202 26 -215 q 78 -173 64 -191 q 101 -125 92 -156 q 113 -50 109 -95 q 118 60 118 -5 l 118 631 m 127 812 q 102 873 102 837 q 108 905 102 889 q 127 933 115 921 q 154 951 138 944 q 187 959 169 959 q 220 951 204 959 q 248 933 236 944 q 266 905 259 921 q 274 873 274 889 q 267 839 274 855 q 248 812 260 824 q 220 793 236 800 q 187 787 205 787 q 127 812 152 787 "},"C":{"x_min":74,"x_max":779.03125,"ha":807,"o":"m 698 735 q 637 755 657 735 q 617 825 617 776 l 617 902 q 516 914 562 914 q 398 886 450 914 q 307 803 345 858 q 250 668 270 749 q 230 480 230 587 q 250 284 230 363 q 308 158 270 206 q 401 91 346 111 q 526 72 456 72 q 613 82 568 71 q 707 112 659 92 l 734 123 q 745 126 742 126 q 769 113 759 126 q 779 84 779 100 q 760 56 779 63 l 737 47 q 616 11 678 23 q 487 0 555 0 q 303 31 381 0 q 175 125 225 63 q 99 277 124 187 q 74 483 74 367 q 106 707 74 612 q 195 863 138 801 q 329 955 252 925 q 498 985 407 985 q 571 981 532 985 q 646 971 610 978 q 708 954 681 964 q 746 932 735 945 q 758 888 758 918 l 758 804 q 743 751 758 768 q 698 735 728 735 "},"!":{"x_min":118,"x_max":311,"ha":428,"o":"m 287 914 l 287 312 q 264 279 287 291 q 211 268 242 268 q 161 279 182 268 q 140 312 140 291 l 140 915 q 209 985 140 985 q 268 967 250 985 q 287 914 287 949 m 118 95 q 126 133 118 115 q 147 164 134 151 q 177 185 160 177 q 213 193 195 193 q 250 185 233 193 q 281 163 268 177 q 303 132 295 150 q 311 95 311 115 q 303 59 311 77 q 282 29 295 42 q 251 8 269 16 q 213 0 233 0 q 177 7 194 0 q 146 28 159 15 q 125 59 133 41 q 118 95 118 76 "},"Й":{"x_min":139.03125,"x_max":889.15625,"ha":1028,"o":"m 825 985 q 889 915 889 985 l 889 69 q 874 15 889 31 q 828 0 860 0 q 761 27 784 0 q 739 107 739 54 l 739 791 l 288 48 q 272 25 279 33 q 247 8 266 16 q 202 0 229 0 q 139 69 139 0 l 139 915 q 153 969 139 953 q 200 985 167 985 q 266 957 243 985 q 288 877 288 930 l 288 193 l 739 936 q 751 954 746 948 q 766 969 756 961 q 790 981 775 977 q 825 985 805 985 m 625 1215 q 711 1280 636 1280 q 759 1268 739 1280 q 780 1233 780 1257 q 709 1105 780 1150 q 514 1061 638 1061 q 321 1104 390 1061 q 247 1228 252 1147 q 267 1267 247 1255 q 316 1280 286 1280 q 402 1215 391 1280 q 436 1144 411 1170 q 514 1118 461 1118 q 591 1144 565 1118 q 625 1215 616 1170 "},"{":{"x_min":111.71875,"x_max":505.765625,"ha":561,"o":"m 246 -3 q 246 35 246 14 q 248 77 247 56 q 250 116 249 98 q 250 146 250 135 q 244 211 250 175 q 224 277 238 246 q 188 329 210 308 q 134 351 166 351 q 117 362 123 351 q 111 389 111 374 q 117 417 111 405 q 134 429 123 429 q 189 450 166 429 q 224 502 211 471 q 244 569 238 533 q 250 633 250 604 q 250 663 250 644 q 248 702 249 681 q 246 744 247 723 q 246 783 246 765 q 248 828 246 802 q 259 881 251 854 q 283 934 268 908 q 322 981 298 960 q 381 1015 347 1002 q 464 1028 416 1028 q 495 1018 484 1028 q 505 992 505 1008 q 496 966 505 978 q 471 951 487 955 q 376 829 376 928 q 377 810 376 825 q 378 774 377 795 q 380 731 379 754 q 381 689 380 709 q 383 656 383 670 q 383 641 383 643 q 378 559 383 597 q 359 489 373 521 q 320 433 345 458 q 256 393 295 409 l 256 386 q 319 347 294 371 q 358 291 344 323 q 378 222 372 260 q 383 138 383 183 q 383 123 383 136 q 381 90 383 110 q 380 48 380 70 q 378 5 379 25 q 377 -29 377 -14 q 376 -49 376 -45 q 471 -171 376 -148 q 496 -186 487 -175 q 505 -212 505 -198 q 495 -238 505 -228 q 464 -248 484 -248 q 382 -235 416 -248 q 323 -202 347 -222 q 284 -155 299 -181 q 260 -102 269 -129 q 249 -49 252 -75 q 246 -3 246 -23 "},"X":{"x_min":41.375,"x_max":776.5625,"ha":818,"o":"m 432 603 l 609 911 q 653 967 632 950 q 698 985 674 985 q 728 975 715 985 q 740 951 740 966 q 725 909 740 932 l 491 530 l 765 83 q 773 64 770 73 q 776 44 776 55 q 761 13 776 26 q 722 0 746 0 q 686 4 701 0 q 656 16 670 8 q 632 38 643 25 q 609 71 621 52 l 401 426 l 396 426 l 177 75 q 151 37 164 52 q 128 14 139 23 q 106 3 117 6 q 83 0 95 0 q 51 8 62 0 q 41 30 41 17 q 56 75 41 48 l 335 508 l 96 904 q 87 937 87 918 q 103 970 87 956 q 141 985 119 985 q 202 966 176 985 q 250 911 229 947 l 423 603 l 432 603 "},"#":{"x_min":-82.0625,"x_max":817.9375,"ha":736,"o":"m 522 253 l 483 27 q 464 7 481 14 q 425 0 446 0 q 376 27 376 0 l 417 253 l 233 253 l 189 27 q 168 7 185 14 q 130 0 151 0 q 82 27 82 0 l 123 253 l -65 253 q -82 280 -82 253 q -78 304 -82 291 q -69 328 -75 317 q -56 346 -63 339 q -41 354 -49 354 l 144 354 l 189 594 l 0 594 q -18 625 -18 594 q -15 650 -18 638 q -7 673 -12 663 q 5 691 -2 684 q 19 698 12 698 l 209 698 l 248 919 q 268 938 250 931 q 308 946 286 946 q 358 919 358 946 l 318 698 l 503 698 l 544 919 q 564 938 546 931 q 604 946 581 946 q 640 938 626 946 q 654 919 654 931 l 609 698 l 800 698 q 817 666 817 698 q 815 640 817 653 q 807 617 812 627 q 795 600 802 607 q 780 594 788 594 l 590 594 l 545 354 l 734 354 q 752 323 752 354 q 749 299 752 311 q 741 277 746 287 q 729 259 736 266 q 714 253 722 253 l 522 253 m 250 354 l 437 354 l 482 594 l 297 594 l 250 354 "},"Б":{"x_min":139.03125,"x_max":833.53125,"ha":897,"o":"m 710 743 q 649 764 668 743 q 629 833 629 784 l 629 911 l 288 911 l 288 578 l 490 578 q 631 562 570 578 q 739 514 693 547 q 809 426 785 482 q 833 293 833 370 q 820 201 833 243 q 786 130 807 160 q 735 77 765 101 q 674 40 706 54 q 609 16 643 25 q 544 3 574 7 q 487 0 515 0 l 202 0 q 139 69 139 0 l 139 915 q 202 985 139 985 l 686 985 q 749 974 729 985 q 769 933 769 963 l 769 812 q 755 760 769 776 q 710 743 740 743 m 462 504 l 288 504 l 288 74 l 469 74 q 540 85 505 74 q 606 120 575 96 q 657 188 638 144 q 676 293 676 233 q 462 504 676 504 "},"г":{"x_min":111.234375,"x_max":598.875,"ha":617,"o":"m 111 631 q 123 681 111 665 q 166 697 134 697 l 554 697 q 598 654 598 697 l 598 536 q 587 492 598 506 q 547 478 575 478 q 486 495 502 478 q 470 566 470 511 l 470 632 l 255 632 l 255 98 q 235 19 255 39 q 166 0 215 0 q 123 15 134 0 q 111 65 111 31 l 111 631 "},"Џ":{"x_min":139.03125,"x_max":887.796875,"ha":1026,"o":"m 514 -253 q 442 -184 442 -253 l 442 0 l 202 0 q 139 69 139 0 l 139 915 q 153 969 139 953 q 200 985 167 985 q 266 957 243 985 q 288 877 288 930 l 288 74 l 737 74 l 737 894 q 758 964 737 943 q 823 985 779 985 q 871 968 855 985 q 887 915 887 951 l 887 69 q 873 15 887 31 q 826 0 859 0 l 583 0 l 583 -183 q 566 -236 583 -219 q 514 -253 550 -253 "},")":{"x_min":96.90625,"x_max":415,"ha":526,"o":"m 189 -168 l 166 -195 q 140 -206 157 -206 q 110 -195 124 -206 q 96 -171 96 -185 q 99 -157 96 -165 l 117 -119 q 224 162 189 26 q 259 426 259 298 q 224 689 259 553 q 117 972 189 826 l 99 1010 q 96 1023 96 1017 q 110 1048 96 1037 q 140 1059 124 1059 q 166 1047 157 1059 l 189 1021 q 259 927 220 984 q 332 795 298 871 q 391 627 367 720 q 415 426 415 535 q 391 230 415 321 q 334 63 368 139 q 261 -70 301 -11 q 189 -168 221 -129 "},"э":{"x_min":27.8125,"x_max":634.8125,"ha":704,"o":"m 484 328 l 208 328 q 189 337 196 328 q 183 359 183 347 q 189 382 183 372 q 208 392 196 392 l 484 392 q 305 641 484 641 q 228 621 256 641 q 180 566 201 601 q 148 526 165 540 q 103 513 130 513 q 67 527 81 513 q 52 563 52 540 q 127 656 52 614 q 213 685 158 673 q 314 697 269 697 q 634 362 634 697 q 608 196 634 267 q 533 83 581 125 q 424 20 485 40 q 288 0 362 0 q 95 47 172 0 q 27 142 27 90 q 44 178 27 163 q 82 193 61 193 q 158 138 133 193 q 206 79 174 101 q 301 57 238 57 q 373 71 341 57 q 431 115 405 85 q 471 199 457 146 q 484 328 484 253 "},"х":{"x_min":48.828125,"x_max":622.609375,"ha":671,"o":"m 66 69 l 269 339 l 92 609 q 78 638 82 624 q 73 663 73 652 q 87 688 73 680 q 118 697 100 697 q 185 680 160 697 q 231 627 210 663 l 352 426 l 358 426 l 497 651 q 530 687 513 678 q 576 697 548 697 q 611 670 611 697 q 596 627 611 652 l 411 370 l 605 76 q 622 35 622 48 q 571 0 622 0 q 532 4 548 0 q 503 16 516 8 q 481 36 491 24 q 461 66 472 49 l 326 276 l 323 276 l 166 40 q 134 8 151 17 q 86 0 117 0 q 48 27 48 0 q 66 69 48 46 "},"}":{"x_min":55.234375,"x_max":449.96875,"ha":561,"o":"m 315 -3 q 311 -48 315 -22 q 300 -101 308 -74 q 277 -154 292 -128 q 238 -201 262 -180 q 179 -235 213 -222 q 96 -248 144 -248 q 65 -238 76 -248 q 55 -212 55 -228 q 64 -186 55 -198 q 89 -171 73 -175 q 184 -49 184 -148 q 183 -29 184 -45 q 182 5 183 -14 q 180 48 181 25 q 179 90 180 70 q 177 123 178 110 q 177 138 177 136 q 183 222 177 184 q 203 292 188 261 q 242 347 218 323 q 305 386 267 371 l 305 393 q 241 433 266 409 q 202 489 216 457 q 182 558 188 520 q 177 641 177 597 q 177 656 177 643 q 179 689 178 670 q 180 731 180 709 q 182 774 181 754 q 183 810 183 795 q 184 829 184 825 q 89 951 184 928 q 64 966 73 955 q 55 992 55 978 q 65 1018 55 1008 q 96 1028 76 1028 q 178 1015 143 1028 q 237 982 212 1002 q 276 935 261 961 q 300 882 291 909 q 311 828 308 855 q 315 783 315 802 q 314 744 315 765 q 312 702 313 723 q 311 663 312 681 q 310 633 310 644 q 313 591 310 613 q 321 546 316 568 q 336 502 327 523 q 358 464 345 481 q 388 438 371 448 q 427 429 405 429 q 444 417 438 429 q 449 389 449 405 q 444 362 449 374 q 427 351 438 351 q 388 341 405 351 q 359 315 371 332 q 337 278 346 299 q 322 234 327 257 q 313 189 316 211 q 310 146 310 166 q 311 116 310 135 q 312 77 312 98 q 314 35 313 56 q 315 -3 315 14 "},"‰":{"x_min":83.421875,"x_max":1707.09375,"ha":1791,"o":"m 975 1015 l 340 -107 q 320 -115 334 -115 q 279 -103 301 -115 q 258 -78 258 -91 q 259 -70 258 -74 l 893 1058 q 909 1067 897 1067 q 953 1052 929 1067 q 976 1022 976 1037 q 975 1015 976 1018 m 307 1007 q 365 999 336 1007 q 424 970 394 991 q 477 918 454 949 q 514 835 499 887 q 529 716 529 783 q 514 597 529 649 q 477 514 499 545 q 424 462 454 483 q 365 433 394 441 q 307 426 336 426 q 248 433 277 426 q 189 462 219 441 q 135 514 158 483 q 98 597 112 545 q 83 716 83 649 q 98 835 83 783 q 135 918 112 887 q 189 970 158 949 q 248 999 219 991 q 307 1007 277 1007 m 202 716 q 209 617 202 660 q 226 551 216 575 q 251 511 236 526 q 279 491 265 496 q 307 486 292 486 q 342 495 326 486 q 375 527 358 504 q 401 598 392 550 q 411 716 411 647 q 404 814 411 772 q 387 881 397 856 q 362 921 377 906 q 335 941 348 936 q 307 947 322 947 q 279 941 292 947 q 251 921 265 936 q 226 881 236 906 q 209 814 216 856 q 202 716 202 772 m 737 150 q 722 269 722 202 q 737 388 722 336 q 774 471 752 440 q 828 523 797 502 q 888 552 859 544 q 946 560 916 560 q 1004 552 975 560 q 1063 523 1032 544 q 1116 471 1093 502 q 1153 388 1138 440 q 1167 269 1167 336 q 1153 150 1167 202 q 1116 67 1138 98 q 1063 15 1093 36 q 1004 -13 1032 -5 q 946 -21 975 -21 q 888 -13 916 -21 q 828 15 859 -5 q 774 67 797 36 q 737 150 752 98 m 841 269 q 848 171 841 213 q 865 104 855 129 q 890 64 875 79 q 917 44 904 49 q 946 39 931 39 q 974 44 961 39 q 1001 64 987 49 q 1026 104 1015 79 q 1043 171 1036 129 q 1049 269 1049 213 q 1040 387 1049 338 q 1014 458 1030 435 q 981 490 997 481 q 946 500 965 500 q 917 494 931 500 q 890 474 904 489 q 865 434 875 459 q 848 368 855 410 q 841 269 841 325 m 1275 150 q 1261 269 1261 202 q 1276 388 1261 336 q 1313 471 1290 440 q 1367 523 1336 502 q 1426 552 1397 544 q 1484 560 1455 560 q 1542 552 1513 560 q 1601 523 1571 544 q 1655 471 1632 502 q 1692 388 1677 440 q 1707 269 1707 336 q 1692 150 1707 202 q 1655 67 1677 98 q 1601 15 1632 36 q 1542 -13 1571 -5 q 1484 -21 1513 -21 q 1426 -13 1455 -21 q 1367 15 1397 -5 q 1313 67 1336 36 q 1275 150 1290 98 m 1380 269 q 1387 171 1380 213 q 1404 104 1394 129 q 1429 64 1414 79 q 1456 44 1443 49 q 1484 39 1469 39 q 1512 44 1499 39 q 1540 64 1526 49 q 1565 104 1555 79 q 1582 171 1575 129 q 1589 269 1589 213 q 1582 368 1589 325 q 1565 434 1575 410 q 1540 474 1555 459 q 1512 494 1526 489 q 1484 500 1499 500 q 1449 490 1465 500 q 1416 458 1433 481 q 1390 387 1399 435 q 1380 269 1380 338 "},"ш":{"x_min":111.234375,"x_max":973.921875,"ha":1084,"o":"m 918 0 l 166 0 q 123 15 134 0 q 111 65 111 31 l 111 631 q 123 681 111 665 q 166 697 134 697 q 234 670 213 697 q 255 583 255 644 l 255 65 l 470 65 l 470 609 q 487 679 470 661 q 541 697 505 697 q 597 679 581 697 q 613 609 613 661 l 613 65 l 829 65 l 829 598 q 849 677 829 658 q 918 697 869 697 q 961 681 949 697 q 973 631 973 665 l 973 65 q 961 15 973 31 q 918 0 949 0 "},"Я":{"x_min":79.359375,"x_max":754.1875,"ha":893,"o":"m 754 915 l 754 69 q 690 0 754 0 q 625 20 646 0 q 604 90 604 41 l 604 436 l 478 436 l 244 52 q 149 0 212 0 q 97 12 115 0 q 79 46 79 25 q 91 82 79 62 l 322 445 q 206 484 261 452 q 115 571 152 515 q 79 695 79 627 q 98 809 79 759 q 149 891 117 859 q 226 945 181 923 q 322 975 271 966 q 430 985 372 985 l 693 985 q 739 969 725 985 q 754 915 754 953 m 604 911 l 444 911 q 392 906 417 911 q 337 887 366 901 q 286 851 307 873 q 250 791 264 829 q 236 704 236 753 q 255 608 236 647 q 306 548 274 568 q 376 518 339 527 q 455 510 412 510 l 604 510 l 604 911 "},"Ч":{"x_min":96.984375,"x_max":783.34375,"ha":922,"o":"m 722 0 q 656 27 678 0 q 633 106 633 54 l 633 415 q 509 376 565 389 q 385 363 453 363 q 171 423 246 363 q 96 622 96 484 l 96 915 q 110 969 96 953 q 156 985 124 985 q 241 877 241 985 l 241 626 q 426 440 241 440 q 531 454 474 440 q 633 494 587 468 l 633 894 q 654 964 633 943 q 719 985 675 985 q 783 915 783 985 l 783 69 q 769 15 783 31 q 722 0 754 0 "},"a":{"x_min":60,"x_max":657.46875,"ha":758,"o":"m 518 131 l 514 132 q 409 31 468 63 q 269 0 350 0 q 178 13 218 0 q 112 50 139 26 q 73 109 86 75 q 60 187 60 144 q 75 275 60 232 q 129 354 90 319 q 237 409 169 388 q 409 431 304 431 l 511 431 l 511 469 q 503 549 511 516 q 478 602 495 582 q 435 631 462 622 q 372 641 409 641 q 250 582 303 641 q 165 534 205 534 q 129 547 142 534 q 116 581 116 561 q 142 629 116 608 q 207 665 167 650 q 298 688 247 680 q 400 697 348 697 q 525 681 475 697 q 604 634 574 665 q 645 556 633 603 q 657 445 657 509 l 657 65 q 645 15 657 31 q 603 0 634 0 q 538 30 557 0 q 518 131 518 61 m 513 373 l 432 373 q 204 206 204 373 q 325 92 204 92 q 384 102 351 92 q 445 132 416 112 q 493 184 474 153 q 513 255 513 214 l 513 373 "},"—":{"x_min":111,"x_max":1307,"ha":1418,"o":"m 1280 347 l 137 347 q 117 362 124 347 q 111 398 111 377 q 117 435 111 419 q 137 451 124 451 l 1280 451 q 1299 435 1292 451 q 1307 398 1307 419 q 1299 362 1307 378 q 1280 347 1292 347 "},"=":{"x_min":125,"x_max":847,"ha":973,"o":"m 819 561 l 152 561 l 150 561 q 131 578 137 561 q 125 616 125 595 q 131 654 125 637 q 150 672 137 672 l 152 672 l 819 672 q 840 655 833 672 q 847 616 847 638 q 840 577 847 594 q 819 561 833 561 m 819 315 l 152 315 l 150 315 q 131 332 137 315 q 125 370 125 349 q 131 408 125 391 q 150 426 137 426 l 152 426 l 819 426 q 840 409 833 426 q 847 370 847 392 q 840 331 847 348 q 819 315 833 315 "},"N":{"x_min":139,"x_max":892.875,"ha":1032,"o":"m 139 62 l 139 909 q 163 964 139 944 q 222 985 187 985 q 276 972 252 985 q 322 926 300 959 l 776 205 l 783 205 l 783 906 q 800 966 783 947 q 839 985 817 985 q 877 970 862 985 q 892 922 892 955 l 892 80 q 869 21 892 42 q 812 0 846 0 q 711 55 745 0 l 257 779 l 248 779 l 248 78 q 231 18 248 37 q 191 0 214 0 q 154 14 169 0 q 139 62 139 29 "},"Ћ":{"x_min":27.8125,"x_max":1055.3125,"ha":1174,"o":"m 729 530 q 626 514 680 530 q 526 468 572 498 l 526 82 q 505 17 526 35 q 440 0 485 0 q 376 69 376 0 l 376 911 l 168 911 l 168 812 q 148 743 168 764 q 87 722 128 722 q 27 791 27 722 l 27 933 q 47 974 27 963 q 111 985 67 985 l 791 985 q 854 974 834 985 q 874 933 874 963 l 874 798 q 860 745 874 762 q 815 728 845 728 q 754 749 774 728 q 734 819 734 771 l 734 911 l 526 911 l 526 553 q 649 595 596 582 q 769 608 702 608 q 888 594 837 608 q 977 551 939 580 q 1035 470 1015 521 q 1055 348 1055 419 l 1055 69 q 1041 15 1055 31 q 995 0 1028 0 q 910 107 910 0 l 910 344 q 867 483 910 436 q 729 530 823 530 "},"⁄":{"x_min":-270.609375,"x_max":392.015625,"ha":121,"o":"m -269 19 l 316 1007 q 333 1014 319 1014 q 352 1010 341 1014 q 370 1001 362 1006 q 385 988 379 995 q 392 975 392 981 q 389 969 392 970 l -197 -21 q -212 -28 -200 -28 q -231 -24 -221 -28 q -250 -14 -241 -20 q -264 -1 -259 -8 q -270 12 -270 5 q -269 19 -270 15 "},"д":{"x_min":0,"x_max":741.96875,"ha":762,"o":"m 44 65 l 84 65 q 154 224 131 127 q 177 494 177 322 l 177 631 q 190 681 177 665 q 234 697 202 697 l 580 697 q 624 681 612 697 q 636 631 636 665 l 636 65 l 697 65 q 741 22 741 65 l 741 -107 q 730 -151 741 -137 q 690 -166 718 -166 q 630 -148 646 -166 q 613 -76 613 -131 l 613 0 l 127 0 l 127 -76 q 111 -148 127 -131 q 51 -166 95 -166 q 11 -151 22 -166 q 0 -107 0 -137 l 0 22 q 44 65 0 65 m 187 65 l 491 65 l 491 632 l 269 632 l 269 494 q 249 241 269 340 q 187 65 230 142 "},"2":{"x_min":48.71875,"x_max":660,"ha":736,"o":"m 124 688 q 79 704 94 688 q 65 757 65 720 l 65 840 q 71 875 65 864 q 96 898 78 886 q 167 938 133 922 q 234 965 200 955 q 303 980 268 975 q 377 985 338 985 q 499 964 448 985 q 583 911 551 944 q 631 832 616 877 q 646 737 646 787 q 623 603 646 672 q 543 452 599 533 q 395 278 488 372 q 164 73 302 185 l 526 73 l 526 159 q 545 229 526 208 q 600 250 563 250 q 660 180 660 250 l 660 44 q 639 10 660 20 q 576 0 619 0 l 83 0 q 57 11 66 0 q 48 38 48 22 q 69 86 48 67 l 88 104 q 280 302 205 213 q 398 461 355 392 q 460 579 442 531 q 483 655 479 628 q 488 686 486 671 q 490 716 490 701 q 483 782 490 747 q 460 846 477 817 q 413 894 443 875 q 333 914 382 914 q 198 877 266 914 l 198 778 q 181 708 198 728 q 124 688 165 688 "},"М":{"x_min":139.03125,"x_max":1072.265625,"ha":1218,"o":"m 1009 0 q 952 25 968 0 q 937 107 937 50 l 937 663 l 938 815 l 929 815 q 893 663 912 711 l 653 51 q 587 0 630 0 q 523 51 544 0 l 284 663 q 254 815 261 720 l 244 815 q 248 663 248 766 l 248 77 q 231 18 248 37 q 191 0 214 0 q 154 15 169 0 q 139 62 139 30 l 139 911 q 161 965 139 946 q 218 985 183 985 q 308 918 282 985 l 592 170 l 600 170 l 887 911 q 994 985 914 985 q 1049 966 1026 985 q 1072 911 1072 947 l 1072 69 q 1009 0 1072 0 "},"Z":{"x_min":55.484375,"x_max":766,"ha":822,"o":"m 683 0 l 117 0 q 71 19 86 0 q 55 66 55 38 q 66 117 55 100 l 598 912 l 226 912 l 226 834 q 206 764 226 785 q 145 744 187 744 q 100 760 115 744 q 86 813 86 776 l 86 933 q 106 974 86 964 q 169 985 126 985 l 692 985 q 739 964 723 985 q 755 915 755 944 q 744 867 755 884 l 199 73 l 626 73 l 626 150 q 645 220 626 199 q 706 241 665 241 q 751 224 736 241 q 766 171 766 208 l 766 51 q 746 10 766 20 q 683 0 726 0 "},"ь":{"x_min":111.234375,"x_max":644.3125,"ha":684,"o":"m 255 582 l 255 401 l 384 401 q 583 352 522 401 q 644 210 644 304 q 566 54 644 108 q 345 0 489 0 l 166 0 q 123 15 134 0 q 111 65 111 31 l 111 631 q 123 681 111 665 q 166 697 134 697 q 234 670 213 697 q 255 582 255 644 m 254 62 l 340 62 q 456 95 417 62 q 494 205 494 128 q 455 310 494 281 q 340 339 415 339 l 254 339 l 254 62 "},"u":{"x_min":111,"x_max":694.46875,"ha":806,"o":"m 255 582 l 255 235 q 373 92 255 92 q 435 104 404 92 q 491 139 466 117 q 533 190 517 161 q 550 252 550 219 l 550 597 q 555 647 550 628 q 570 677 560 667 q 598 692 581 688 q 638 697 615 697 q 682 681 671 697 q 694 631 694 665 l 694 59 q 680 13 694 27 q 634 0 667 0 q 552 119 552 0 l 552 128 l 550 128 q 451 34 513 69 q 307 0 389 0 q 111 209 111 0 l 111 631 q 122 681 111 665 q 166 697 134 697 q 234 670 213 697 q 255 582 255 644 "},"k":{"x_min":111,"x_max":684.78125,"ha":713,"o":"m 255 941 l 255 387 l 486 599 q 535 643 514 624 q 575 673 557 661 q 609 691 593 685 q 642 697 625 697 q 683 659 683 697 q 678 639 683 648 q 663 621 673 630 q 634 599 652 611 q 591 571 616 587 l 544 541 q 518 524 530 532 q 493 505 507 515 q 465 483 480 495 q 429 454 450 470 l 372 406 q 411 360 386 389 q 466 296 436 331 q 527 224 496 261 q 586 155 559 187 q 633 101 613 124 q 659 70 653 77 q 684 26 684 40 q 682 16 684 21 q 673 7 680 11 q 653 2 667 4 q 617 0 640 0 q 578 2 594 0 q 551 9 563 4 q 530 23 539 14 q 512 42 522 31 q 500 56 514 40 q 464 101 486 73 q 412 163 441 128 q 356 232 384 198 q 305 294 329 266 q 270 337 282 323 l 255 320 l 255 98 q 250 49 255 68 q 235 19 245 30 q 207 4 224 8 q 166 0 191 0 q 122 15 134 0 q 111 65 111 31 l 111 989 q 122 1039 111 1024 q 166 1055 134 1055 q 234 1028 213 1055 q 255 941 255 1002 "},"З":{"x_min":55.609375,"x_max":744.6875,"ha":835,"o":"m 196 98 q 275 77 241 83 q 359 71 309 71 q 445 83 406 71 q 510 118 484 96 q 554 168 536 139 q 579 226 571 196 q 587 287 587 256 q 577 356 587 325 q 545 413 568 386 q 477 455 522 440 q 366 470 432 470 l 237 470 q 222 481 227 470 q 216 508 216 492 q 222 535 216 523 q 237 547 227 547 l 368 547 q 559 740 559 547 q 506 865 559 817 q 362 914 453 914 q 215 898 286 914 l 215 820 q 195 751 215 772 q 134 730 175 730 q 89 746 104 730 q 75 800 75 763 l 75 878 q 86 923 75 910 q 132 947 98 936 q 389 985 252 985 q 514 971 459 985 q 606 936 570 958 q 667 882 642 913 q 702 815 691 850 q 712 740 712 780 q 540 517 712 572 l 540 509 q 744 287 744 476 q 732 206 744 245 q 690 128 719 166 q 619 62 661 90 q 512 17 577 34 q 366 0 446 0 q 109 44 222 0 q 66 69 77 57 q 55 111 55 82 l 55 194 q 115 261 55 261 q 175 240 155 261 q 196 173 196 220 l 196 98 "},"Ў":{"x_min":65.109375,"x_max":805.734375,"ha":855,"o":"m 491 423 l 682 911 q 762 985 709 985 q 793 971 781 985 q 805 938 805 957 q 798 908 805 923 l 540 301 q 487 196 516 245 q 419 101 458 147 q 329 27 379 54 q 226 0 280 0 q 175 18 194 0 q 156 76 156 37 q 176 116 156 105 q 250 133 195 126 q 351 172 312 139 q 416 270 389 204 l 73 901 q 65 936 65 916 q 79 971 65 957 q 115 985 92 985 q 176 970 151 985 q 222 913 200 955 l 483 423 l 491 423 m 547 1214 q 633 1280 558 1280 q 681 1268 661 1280 q 702 1233 702 1256 q 631 1105 702 1150 q 436 1061 560 1061 q 243 1104 312 1061 q 169 1228 174 1147 q 189 1267 169 1254 q 238 1280 208 1280 q 324 1214 313 1280 q 358 1144 333 1170 q 436 1118 383 1118 q 547 1214 529 1118 "},"€":{"x_min":-11.984375,"x_max":722.671875,"ha":736,"o":"m 483 363 l 234 363 q 266 222 243 278 q 323 133 289 166 q 403 85 358 99 q 502 72 448 72 q 575 82 537 71 q 657 112 614 92 l 681 123 q 692 126 688 126 q 713 113 705 126 q 722 84 722 100 q 705 56 722 63 l 684 47 q 631 25 654 34 q 583 11 607 16 q 531 2 559 5 q 466 0 503 0 q 206 93 298 0 q 91 363 113 187 l 17 363 q -4 374 3 363 q -11 400 -11 385 q -4 427 -11 415 q 17 439 3 439 l 85 439 l 85 525 l 17 525 q -4 536 3 525 q -11 562 -11 547 q -4 590 -11 578 q 17 602 2 602 l 91 602 q 136 769 103 697 q 217 889 168 841 q 330 960 266 936 q 471 985 395 985 q 563 977 519 985 q 650 955 608 970 q 675 944 665 950 q 692 932 686 939 q 700 914 698 924 q 703 887 703 903 l 703 815 q 689 762 703 778 q 647 746 675 746 q 592 766 610 746 q 574 836 574 787 l 574 902 q 527 910 549 907 q 487 914 506 914 q 320 834 385 914 q 236 602 254 755 l 544 602 q 566 590 558 602 q 574 562 574 578 q 566 536 574 548 q 544 525 558 525 l 229 525 l 229 439 l 483 439 q 505 427 497 439 q 513 400 513 415 q 505 374 513 385 q 483 363 497 363 "},"в":{"x_min":111.234375,"x_max":670.765625,"ha":721,"o":"m 111 631 q 123 681 111 665 q 166 697 134 697 l 402 697 q 472 691 439 697 q 537 673 505 686 q 592 642 569 661 q 629 594 615 623 q 642 529 642 565 q 604 425 642 469 q 498 370 567 381 l 498 360 q 623 315 577 360 q 670 206 670 270 q 652 121 670 158 q 604 61 633 83 q 536 25 575 39 q 461 5 497 10 q 385 0 424 0 l 166 0 q 123 15 134 0 q 111 65 111 31 l 111 631 m 252 330 l 252 62 l 369 62 q 440 74 410 62 q 488 106 471 86 q 513 149 505 127 q 520 198 520 172 q 482 295 520 261 q 366 330 443 330 l 252 330 m 252 388 l 372 388 q 461 419 425 388 q 497 516 497 451 q 461 603 497 571 q 365 635 426 635 l 252 635 l 252 388 "},"С":{"x_min":74,"x_max":779.03125,"ha":807,"o":"m 698 735 q 637 755 657 735 q 617 825 617 776 l 617 902 q 516 914 562 914 q 398 886 450 914 q 307 803 345 858 q 250 668 270 749 q 230 480 230 587 q 250 284 230 363 q 308 158 270 206 q 401 91 346 111 q 526 72 456 72 q 613 82 568 71 q 707 112 659 92 l 734 123 q 745 126 742 126 q 769 113 759 126 q 779 84 779 100 q 760 56 779 63 l 737 47 q 616 11 678 23 q 487 0 555 0 q 303 31 381 0 q 175 125 225 63 q 99 277 124 187 q 74 483 74 367 q 106 707 74 612 q 195 863 138 801 q 329 955 252 925 q 498 985 407 985 q 571 981 532 985 q 646 971 610 978 q 708 954 681 964 q 746 932 735 945 q 758 888 758 918 l 758 804 q 743 751 758 768 q 698 735 728 735 "},"њ":{"x_min":111.234375,"x_max":1077.703125,"ha":1117,"o":"m 695 583 l 695 393 l 817 393 q 1017 346 956 393 q 1077 206 1077 300 q 1000 52 1077 104 q 779 0 923 0 l 607 0 q 563 15 575 0 q 551 65 551 31 l 551 323 l 255 323 l 255 98 q 235 19 255 39 q 166 0 215 0 q 123 15 134 0 q 111 65 111 31 l 111 631 q 123 681 111 665 q 166 697 134 697 q 234 670 213 697 q 255 583 255 644 l 255 392 l 551 392 l 551 631 q 563 681 551 665 q 607 697 575 697 q 674 670 653 697 q 695 583 695 644 m 694 62 l 773 62 q 889 93 851 62 q 927 201 927 124 q 916 266 927 240 q 884 306 906 293 q 836 324 862 319 q 773 330 810 330 l 694 330 l 694 62 "},"s":{"x_min":67.828125,"x_max":626.75,"ha":686,"o":"m 485 169 q 457 237 481 211 q 381 284 433 263 l 302 313 l 248 332 q 183 359 214 345 q 129 394 152 374 q 91 443 105 414 q 78 512 78 471 q 91 581 78 551 q 127 630 105 610 q 177 664 149 651 q 234 684 205 677 q 289 694 263 691 q 335 697 316 697 q 443 686 396 697 q 522 658 490 675 q 572 617 555 640 q 588 569 588 594 q 572 532 588 546 q 534 519 556 519 q 489 531 508 519 q 459 569 471 544 q 336 641 425 641 q 248 613 281 641 q 215 532 215 586 q 223 499 215 513 q 243 472 231 484 q 269 451 255 460 q 299 436 284 442 l 338 420 l 384 404 q 421 391 403 397 q 458 379 440 385 q 493 363 476 372 q 528 344 510 355 q 565 319 548 332 q 596 289 583 305 q 618 252 610 273 q 626 206 626 232 q 605 122 626 160 q 546 56 584 84 q 455 14 508 29 q 339 0 402 0 q 239 9 288 0 q 152 35 191 18 q 91 78 114 53 q 67 136 67 103 q 72 156 67 147 q 84 172 77 166 q 102 183 92 179 q 122 187 111 187 q 198 137 175 187 q 215 109 205 123 q 241 82 225 94 q 281 63 257 70 q 341 56 305 56 q 398 62 372 56 q 443 83 424 69 q 474 119 463 97 q 485 169 485 140 "},"B":{"x_min":139,"x_max":846.671875,"ha":931,"o":"m 139 915 q 202 985 139 985 l 487 985 q 796 737 796 985 q 785 670 796 703 q 753 608 773 636 q 704 559 733 580 q 638 529 674 538 l 638 522 q 733 490 693 512 q 797 439 772 468 q 834 372 822 409 q 846 294 846 335 q 829 184 846 230 q 783 105 812 137 q 717 51 754 72 q 641 19 680 31 q 564 4 602 8 q 494 0 526 0 l 202 0 q 139 69 139 0 l 139 915 m 460 480 l 288 480 l 288 73 l 474 73 q 543 81 506 73 q 614 113 581 90 q 668 177 646 136 q 690 280 690 217 q 668 372 690 335 q 613 434 647 410 q 539 469 580 458 q 460 480 499 480 m 437 912 l 288 912 l 288 553 l 449 553 q 514 563 480 553 q 575 596 548 573 q 621 654 603 618 q 639 742 639 691 q 619 823 639 791 q 569 875 599 856 q 503 903 539 895 q 437 912 468 912 "},"…":{"x_min":83,"x_max":1022,"ha":1106,"o":"m 811 106 q 819 150 811 130 q 841 185 827 170 q 875 207 855 199 q 916 216 894 216 q 958 207 939 216 q 991 184 977 199 q 1013 149 1005 169 q 1022 106 1022 130 q 1014 65 1022 84 q 992 31 1006 46 q 958 8 977 16 q 916 0 939 0 q 875 8 895 0 q 842 30 856 16 q 819 64 827 44 q 811 106 811 83 m 83 106 q 91 150 83 130 q 113 185 99 170 q 147 207 127 199 q 188 216 166 216 q 230 207 211 216 q 263 184 249 199 q 285 149 277 169 q 294 106 294 130 q 286 65 294 84 q 264 31 278 46 q 230 8 249 16 q 188 0 211 0 q 147 8 167 0 q 114 30 128 16 q 91 64 99 44 q 83 106 83 83 m 447 106 q 455 150 447 130 q 477 185 463 170 q 511 207 491 199 q 553 216 530 216 q 594 207 575 216 q 628 184 614 199 q 650 149 642 169 q 659 106 659 130 q 650 65 659 84 q 628 31 642 45 q 594 8 614 16 q 553 0 575 0 q 511 8 531 0 q 478 30 492 16 q 455 64 463 44 q 447 106 447 83 "},"В":{"x_min":139,"x_max":846.671875,"ha":931,"o":"m 139 915 q 202 985 139 985 l 487 985 q 796 737 796 985 q 785 670 796 703 q 753 608 773 636 q 704 559 733 580 q 638 529 674 538 l 638 522 q 733 490 693 512 q 797 439 772 468 q 834 372 822 409 q 846 294 846 335 q 829 184 846 230 q 783 105 812 137 q 717 51 754 72 q 641 19 680 31 q 564 4 602 8 q 494 0 526 0 l 202 0 q 139 69 139 0 l 139 915 m 460 480 l 288 480 l 288 73 l 474 73 q 543 81 506 73 q 614 113 581 90 q 668 177 646 136 q 690 280 690 217 q 668 372 690 335 q 613 434 647 410 q 539 469 580 458 q 460 480 499 480 m 437 912 l 288 912 l 288 553 l 449 553 q 514 563 480 553 q 575 596 548 573 q 621 654 603 618 q 639 742 639 691 q 619 823 639 791 q 569 875 599 856 q 503 903 539 895 q 437 912 468 912 "},"І":{"x_min":27.59375,"x_max":538.96875,"ha":567,"o":"m 496 0 l 68 0 q 27 32 27 0 q 39 62 27 51 q 83 73 50 73 l 208 73 l 208 912 l 83 912 q 39 922 50 912 q 27 952 27 933 q 68 985 27 985 l 496 985 q 538 952 538 985 q 483 912 538 912 l 357 912 l 357 73 l 483 73 q 538 32 538 73 q 496 0 538 0 "},"?":{"x_min":41,"x_max":597.34375,"ha":653,"o":"m 101 700 q 55 716 70 700 q 41 769 41 733 l 41 849 q 49 887 41 873 q 76 913 57 900 q 193 967 133 949 q 319 985 254 985 q 452 964 399 985 q 538 913 506 944 q 583 845 570 882 q 597 774 597 808 q 592 726 597 749 q 580 684 587 704 q 562 647 572 664 q 542 619 552 630 q 517 592 533 609 q 485 557 502 575 q 452 523 468 540 q 428 495 437 506 q 394 449 408 470 q 370 406 380 428 q 356 360 360 384 q 352 307 352 337 q 332 278 352 289 q 285 268 312 268 q 243 277 260 268 q 226 307 226 287 q 232 377 226 346 q 249 435 238 409 q 275 488 259 462 q 310 542 291 513 q 355 597 331 573 q 396 647 378 622 q 427 703 415 672 q 440 777 440 733 q 403 883 440 852 q 292 914 366 914 q 174 884 241 914 l 174 790 q 157 720 174 740 q 101 700 140 700 m 196 95 q 203 132 196 114 q 224 163 211 150 q 254 184 237 176 q 291 193 272 193 q 329 185 311 193 q 360 163 346 177 q 381 132 373 150 q 389 95 389 115 q 381 59 389 76 q 360 28 373 41 q 329 7 346 15 q 291 0 311 0 q 254 8 272 0 q 224 29 237 16 q 203 59 210 42 q 196 95 196 77 "},"H":{"x_min":139,"x_max":891.890625,"ha":1031,"o":"m 828 985 q 891 915 891 985 l 891 69 q 877 15 891 30 q 830 0 863 0 q 764 27 787 0 q 742 107 742 54 l 742 470 l 288 470 l 288 90 q 268 20 288 41 q 202 0 247 0 q 139 69 139 0 l 139 915 q 153 969 139 954 q 200 985 167 985 q 266 957 243 985 q 288 877 288 930 l 288 547 l 742 547 l 742 894 q 762 964 742 943 q 828 985 783 985 "},"c":{"x_min":69,"x_max":652.59375,"ha":681,"o":"m 585 175 q 620 191 601 191 q 642 182 632 191 q 652 161 652 174 q 634 114 652 136 q 382 0 541 0 q 236 25 296 0 q 139 97 176 51 q 85 208 102 144 q 69 347 69 271 q 94 510 69 443 q 164 618 119 576 q 269 678 209 659 q 398 697 329 697 q 489 684 445 697 q 565 651 532 672 q 617 604 598 631 q 637 548 637 577 q 631 525 637 536 q 618 508 626 515 q 600 497 610 501 q 578 494 589 494 q 530 508 548 494 q 503 552 512 523 q 487 588 496 572 q 465 616 478 605 q 435 634 452 628 q 395 641 418 641 q 320 627 353 641 q 264 579 287 613 q 231 488 242 545 q 219 346 219 432 q 229 221 219 275 q 259 132 238 168 q 315 78 281 96 q 398 61 349 61 q 456 68 431 61 q 500 88 481 75 q 536 117 520 101 q 567 153 552 134 l 585 175 "},"−":{"x_min":125,"x_max":874,"ha":1000,"o":"m 152 429 l 150 429 q 131 446 137 429 q 125 484 125 463 q 131 522 125 505 q 150 540 137 540 l 152 540 l 846 540 q 867 523 860 540 q 874 484 874 506 q 867 445 874 462 q 846 429 860 429 l 152 429 "},"•":{"x_min":125,"x_max":451,"ha":575,"o":"m 173 376 q 125 491 125 424 q 137 553 125 523 q 173 605 150 582 q 225 640 195 627 q 288 654 254 654 q 350 640 320 654 q 402 605 379 627 q 437 553 424 582 q 451 491 451 523 q 437 428 451 457 q 402 376 424 398 q 350 340 379 353 q 288 328 320 328 q 173 376 221 328 "},"н":{"x_min":111.234375,"x_max":704,"ha":815,"o":"m 704 631 l 704 65 q 692 15 704 31 q 648 0 680 0 q 580 26 601 0 q 559 113 559 52 l 559 323 l 255 323 l 255 98 q 235 19 255 39 q 166 0 215 0 q 123 15 134 0 q 111 65 111 31 l 111 631 q 123 681 111 665 q 166 697 134 697 q 234 670 213 697 q 255 583 255 644 l 255 392 l 559 392 l 559 597 q 579 677 559 657 q 648 697 599 697 q 692 681 680 697 q 704 631 704 665 "},"(":{"x_min":111,"x_max":429.078125,"ha":526,"o":"m 359 -195 l 337 -168 q 261 -63 300 -124 q 187 72 221 -2 q 132 237 154 148 q 111 426 111 326 q 132 615 111 526 q 187 779 154 704 q 261 916 221 855 q 337 1021 300 977 l 359 1047 q 384 1059 368 1059 q 415 1048 401 1059 q 429 1023 429 1038 q 426 1010 429 1017 l 408 972 q 301 689 336 826 q 266 426 266 553 q 301 162 266 298 q 408 -119 336 26 l 426 -157 q 429 -171 429 -165 q 415 -195 429 -185 q 385 -206 401 -206 q 359 -195 368 -206 "},"U":{"x_min":129,"x_max":867.875,"ha":997,"o":"m 279 877 l 279 304 q 296 203 279 248 q 344 127 313 158 q 421 80 376 96 q 524 64 467 64 q 621 82 578 64 q 694 133 664 100 q 741 211 725 166 q 758 310 758 256 l 758 907 q 775 966 758 947 q 814 985 792 985 q 852 970 837 985 q 867 922 867 955 l 867 352 q 863 282 867 322 q 844 201 858 242 q 804 119 829 159 q 737 48 779 80 q 637 -2 696 16 q 497 -21 578 -21 q 354 -2 413 -21 q 253 45 294 15 q 188 115 213 76 q 150 195 163 154 q 133 276 137 236 q 129 348 129 316 l 129 915 q 143 969 129 954 q 190 985 157 985 q 256 957 234 985 q 279 877 279 930 "},"F":{"x_min":139,"x_max":758,"ha":773,"o":"m 580 464 l 288 464 l 288 90 q 268 20 288 41 q 202 0 247 0 q 139 69 139 0 l 139 915 q 202 985 139 985 l 674 985 q 738 974 718 985 q 758 933 758 963 l 758 826 q 743 773 758 790 q 698 757 728 757 q 637 777 657 757 q 617 847 617 798 l 617 912 l 288 912 l 288 541 l 580 541 q 609 529 599 541 q 619 501 619 517 q 615 487 619 494 q 606 475 612 481 q 594 467 601 470 q 580 464 587 464 "},"м":{"x_min":111.234375,"x_max":849.8125,"ha":961,"o":"m 111 59 l 111 631 q 172 697 111 697 q 234 688 215 697 q 269 655 254 679 l 484 149 l 487 149 l 702 655 q 794 697 720 697 q 837 681 826 697 q 849 631 849 665 l 849 65 q 837 15 849 31 q 794 0 826 0 q 726 26 747 0 q 705 113 705 52 l 705 444 l 699 444 l 523 44 q 465 0 505 0 q 409 37 426 0 l 216 474 l 210 474 l 210 113 q 201 23 210 46 q 158 0 191 0 q 111 59 111 0 "},"з":{"x_min":27.8125,"x_max":605.65625,"ha":660,"o":"m 158 138 q 206 78 174 100 q 301 56 238 56 q 455 201 455 56 q 293 328 455 328 l 209 328 q 189 338 196 328 q 183 363 183 349 q 209 392 183 392 l 295 392 q 403 426 364 392 q 441 525 441 461 q 407 610 441 579 q 312 641 373 641 q 180 566 225 641 q 148 526 165 540 q 103 513 130 513 q 67 527 81 513 q 52 563 52 540 q 127 656 52 614 q 213 685 158 673 q 314 697 269 697 q 587 530 587 697 q 548 427 587 472 q 429 367 509 383 l 429 358 q 558 315 511 358 q 605 205 605 273 q 526 55 605 110 q 288 0 446 0 q 95 47 172 0 q 27 142 27 90 q 44 178 27 163 q 82 193 61 193 q 158 138 133 193 "},":":{"x_min":83,"x_max":294,"ha":378,"o":"m 83 578 q 91 622 83 601 q 113 657 99 642 q 147 679 127 671 q 188 688 166 688 q 230 679 211 688 q 263 656 249 671 q 285 621 277 641 q 294 578 294 601 q 286 536 294 555 q 264 502 278 517 q 230 479 249 487 q 188 471 211 471 q 147 479 167 471 q 114 501 128 487 q 91 535 99 515 q 83 578 83 555 m 83 106 q 91 150 83 130 q 113 185 99 170 q 147 207 127 199 q 188 216 166 216 q 230 207 211 216 q 263 184 249 199 q 285 149 277 169 q 294 106 294 130 q 286 65 294 84 q 264 31 278 46 q 230 8 249 16 q 188 0 211 0 q 147 8 167 0 q 114 30 128 16 q 91 64 99 44 q 83 106 83 83 "},"Ґ":{"x_min":139.03125,"x_max":718.234375,"ha":718,"o":"m 288 911 l 288 90 q 267 20 288 41 q 202 0 246 0 q 139 69 139 0 l 139 915 q 202 985 139 985 l 577 985 l 577 1090 q 597 1159 577 1138 q 658 1181 617 1181 q 718 1111 718 1181 l 718 962 q 698 921 718 932 q 634 911 678 911 l 288 911 "},"і":{"x_min":102,"x_max":274,"ha":380,"o":"m 262 602 l 262 94 q 257 46 262 64 q 242 17 252 27 q 214 3 231 7 q 173 0 198 0 q 129 15 141 0 q 118 65 118 31 l 118 631 q 129 681 118 665 q 173 697 141 697 q 240 674 219 697 q 262 602 262 651 m 127 812 q 102 873 102 837 q 108 905 102 889 q 127 933 115 921 q 154 951 138 944 q 187 959 169 959 q 220 951 204 959 q 248 933 236 944 q 266 905 259 921 q 274 873 274 889 q 267 839 274 855 q 248 812 260 824 q 220 793 236 800 q 187 787 205 787 q 127 812 152 787 "},"*":{"x_min":69.40625,"x_max":555.90625,"ha":625,"o":"m 366 960 l 350 788 l 354 785 l 494 884 q 503 887 499 887 q 520 880 511 887 q 537 861 529 872 q 550 838 545 850 q 555 816 555 825 q 547 800 555 804 l 382 724 l 382 720 l 542 648 q 551 630 551 644 q 546 608 551 621 q 534 585 541 595 q 517 566 526 574 q 501 559 509 559 q 493 562 498 559 l 355 665 l 351 662 l 366 488 q 313 465 366 465 q 260 488 260 465 l 273 662 l 269 665 l 133 562 q 125 559 129 559 q 108 566 116 559 q 92 585 99 574 q 80 608 85 595 q 75 630 75 621 q 85 648 75 644 l 243 720 l 243 724 l 79 800 q 69 816 69 802 q 74 838 69 825 q 88 861 80 851 q 106 880 96 872 q 123 887 115 887 q 132 884 126 887 l 270 785 l 275 788 l 260 960 l 260 962 q 276 978 260 973 q 313 984 293 984 q 349 978 332 984 q 366 962 366 973 l 366 960 "},"†":{"x_min":55.609375,"x_max":588.703125,"ha":644,"o":"m 261 546 l 94 546 q 65 562 75 546 q 55 601 55 578 q 65 640 55 624 q 94 657 75 657 l 261 657 l 261 945 q 279 975 261 964 q 322 986 297 986 q 364 975 346 986 q 383 945 383 964 l 383 657 l 550 657 q 578 640 567 657 q 588 601 588 623 q 578 562 588 579 q 550 546 567 546 l 383 546 l 383 -87 q 365 -117 383 -107 q 322 -128 347 -128 q 279 -117 297 -128 q 261 -87 261 -107 l 261 546 "},"Ќ":{"x_min":139.03125,"x_max":848.453125,"ha":842,"o":"m 666 1290 l 519 1086 q 468 1064 501 1064 q 439 1071 450 1064 q 429 1090 429 1078 q 431 1103 429 1098 l 511 1301 q 542 1327 519 1318 q 593 1337 565 1337 q 650 1327 629 1337 q 671 1303 671 1318 q 666 1290 671 1296 m 288 877 l 288 541 l 318 541 l 726 957 q 781 985 752 985 q 817 971 803 985 q 832 940 832 957 q 825 923 832 930 l 429 531 l 829 91 q 848 51 848 70 q 832 15 848 30 q 791 0 817 0 q 731 13 760 0 q 666 67 702 27 l 318 464 l 288 464 l 288 90 q 267 20 288 41 q 202 0 246 0 q 139 69 139 0 l 139 915 q 153 969 139 953 q 200 985 167 985 q 266 957 243 985 q 288 877 288 930 "},"V":{"x_min":25.09375,"x_max":809.796875,"ha":829,"o":"m 436 156 l 687 911 q 703 948 695 933 q 721 970 712 962 q 742 981 731 978 q 766 985 754 985 q 797 974 786 985 q 809 947 809 963 q 808 931 809 939 q 803 913 806 922 l 499 55 q 412 0 479 0 q 328 50 346 0 l 30 902 q 25 933 25 919 q 39 970 25 956 q 84 985 54 985 q 180 911 155 985 l 427 156 l 436 156 "},"У":{"x_min":65.109375,"x_max":805.734375,"ha":855,"o":"m 491 423 l 682 911 q 762 985 709 985 q 793 971 781 985 q 805 938 805 957 q 798 908 805 923 l 540 301 q 487 196 516 245 q 419 101 458 147 q 329 27 379 54 q 226 0 280 0 q 175 18 194 0 q 156 76 156 37 q 176 116 156 105 q 250 133 195 126 q 351 172 312 139 q 416 270 389 204 l 73 901 q 65 936 65 916 q 79 971 65 957 q 115 985 92 985 q 176 970 151 985 q 222 913 200 955 l 483 423 l 491 423 "},"0":{"x_min":48,"x_max":689.28125,"ha":736,"o":"m 48 491 q 64 681 48 592 q 118 838 81 771 q 217 945 156 906 q 368 985 279 985 q 519 945 458 985 q 618 837 580 905 q 672 680 656 769 q 689 491 689 591 q 672 293 689 383 q 617 138 655 203 q 517 36 578 72 q 368 0 456 0 q 219 36 280 0 q 120 137 158 72 q 64 293 81 202 q 48 491 48 383 m 536 491 q 533 592 535 551 q 529 655 531 632 q 514 753 525 706 q 485 836 504 800 q 437 892 466 871 q 368 914 409 914 q 283 881 315 911 q 233 796 251 850 q 209 663 215 741 q 200 491 202 586 q 203 383 201 426 q 207 316 205 340 q 222 217 212 262 q 252 140 233 172 q 300 90 271 108 q 368 71 328 72 q 431 86 404 71 q 479 131 459 102 q 510 201 498 161 q 527 289 522 241 q 532 365 529 315 q 536 491 534 415 "},"”":{"x_min":84,"x_max":564,"ha":647,"o":"m 117 724 l 170 836 q 125 851 142 840 q 99 878 109 863 q 87 908 90 892 q 84 935 84 923 q 93 979 84 960 q 118 1010 103 998 q 153 1029 134 1023 q 193 1036 173 1036 q 231 1029 212 1036 q 263 1011 249 1023 q 286 982 278 999 q 295 943 295 964 q 265 837 295 899 l 207 713 q 155 676 189 676 q 126 686 138 676 q 114 712 114 697 q 117 724 114 717 m 386 724 l 439 836 q 395 851 412 840 q 368 878 378 863 q 356 908 359 892 q 353 935 353 923 q 362 979 353 960 q 387 1010 372 998 q 422 1029 403 1023 q 462 1036 442 1036 q 500 1029 481 1036 q 532 1011 518 1023 q 555 982 547 999 q 564 943 564 964 q 534 837 564 899 l 476 713 q 425 676 458 676 q 395 686 407 676 q 383 712 383 697 q 386 724 383 717 "},"@":{"x_min":83,"x_max":1090,"ha":1139,"o":"m 324 354 q 348 497 324 431 q 417 611 373 563 q 520 688 461 660 q 649 716 579 716 q 718 711 686 716 q 774 699 750 707 q 812 678 798 690 q 826 651 826 666 q 816 605 826 647 q 790 481 807 563 q 754 313 754 320 q 801 272 754 272 q 864 288 831 272 q 924 337 897 305 q 969 416 951 369 q 986 523 986 463 q 971 610 986 568 q 930 690 957 652 q 866 758 903 727 q 786 812 830 790 q 694 847 743 834 q 597 860 646 860 q 494 845 545 860 q 398 805 444 831 q 313 742 352 779 q 246 660 274 705 q 201 560 217 614 q 185 448 185 507 q 214 296 185 370 q 298 163 243 221 q 430 70 352 105 q 603 35 507 35 q 854 114 738 35 q 870 120 861 120 q 887 114 879 120 q 903 101 896 109 q 914 83 910 93 q 919 63 919 73 q 903 35 919 45 q 828 -10 863 8 q 758 -42 793 -29 q 683 -60 722 -54 q 597 -67 645 -67 q 480 -52 540 -67 q 363 -8 420 -37 q 255 63 306 20 q 166 164 204 107 q 105 292 127 221 q 83 448 83 363 q 101 586 83 520 q 154 710 120 652 q 236 813 188 767 q 340 893 283 860 q 460 944 396 926 q 592 962 524 962 q 718 947 656 962 q 836 906 780 933 q 937 841 891 879 q 1018 753 984 802 q 1071 647 1052 705 q 1090 523 1090 589 q 1064 380 1090 444 q 995 273 1038 317 q 896 206 952 229 q 779 183 840 183 q 744 185 764 183 q 707 195 725 188 q 672 218 688 203 q 648 256 657 232 q 475 190 598 190 q 411 201 439 190 q 364 235 383 213 q 334 287 344 257 q 324 354 324 317 m 521 283 q 633 328 592 283 l 700 619 q 646 634 676 634 q 574 613 609 634 q 512 557 539 592 q 468 473 485 521 q 452 371 452 425 q 470 304 452 326 q 521 283 488 283 "},"i":{"x_min":102,"x_max":274,"ha":380,"o":"m 262 602 l 262 94 q 257 46 262 64 q 242 17 252 27 q 214 3 231 7 q 173 0 198 0 q 129 15 141 0 q 118 65 118 31 l 118 631 q 129 681 118 665 q 173 697 141 697 q 240 674 219 697 q 262 602 262 651 m 127 812 q 102 873 102 837 q 108 905 102 889 q 127 933 115 921 q 154 951 138 944 q 187 959 169 959 q 220 951 204 959 q 248 933 236 944 q 266 905 259 921 q 274 873 274 889 q 267 839 274 855 q 248 812 260 824 q 220 793 236 800 q 187 787 205 787 q 127 812 152 787 "},"ќ":{"x_min":111.234375,"x_max":691.78125,"ha":720,"o":"m 255 583 l 255 399 l 301 399 l 544 640 q 599 684 575 671 q 647 697 622 697 q 686 662 686 697 q 665 615 686 636 q 593 561 644 595 q 510 499 542 527 q 393 392 478 472 l 666 70 q 691 26 691 41 q 688 12 691 17 q 669 4 685 8 q 625 0 653 0 q 558 9 579 0 q 519 42 537 19 l 288 334 l 255 334 l 255 98 q 235 19 255 39 q 166 0 215 0 q 123 15 134 0 q 111 65 111 31 l 111 631 q 123 681 111 665 q 166 697 134 697 q 234 670 213 697 q 255 583 255 644 m 555 993 l 419 813 q 368 791 402 791 q 341 798 352 791 q 331 817 331 805 q 333 830 331 825 l 406 1004 q 435 1030 413 1021 q 484 1040 457 1040 q 539 1030 519 1040 q 560 1006 560 1021 q 555 993 560 997 "},"ё":{"x_min":69,"x_max":673.75,"ha":729,"o":"m 604 175 q 619 186 610 182 q 639 191 628 191 q 661 182 651 191 q 671 161 671 174 q 653 114 671 135 q 397 0 560 0 q 254 22 316 0 q 151 88 192 45 q 89 192 110 131 q 69 331 69 254 q 152 604 69 511 q 394 697 235 697 q 509 678 457 697 q 597 624 560 660 q 653 537 633 589 q 673 417 673 484 q 595 350 673 350 l 220 350 q 219 336 220 344 q 219 319 219 328 q 231 211 219 259 q 266 130 242 164 q 326 78 290 96 q 412 61 362 61 q 482 71 453 61 q 532 97 511 82 q 567 129 552 112 q 591 159 581 146 l 604 175 m 385 641 q 276 584 318 641 q 224 408 233 527 l 485 408 q 520 416 509 408 q 532 448 532 425 q 520 531 532 495 q 488 591 508 567 q 441 628 468 615 q 385 641 415 641 m 158 872 q 164 904 158 889 q 183 931 171 920 q 210 950 195 943 q 243 957 226 957 q 275 950 260 957 q 302 931 290 943 q 321 904 314 919 q 328 872 328 889 q 321 839 328 855 q 302 812 314 824 q 275 793 291 800 q 243 787 260 787 q 210 793 226 787 q 183 812 195 800 q 164 839 171 824 q 158 872 158 855 m 431 872 q 437 904 431 889 q 456 931 444 919 q 483 950 468 943 q 516 957 499 957 q 548 949 533 957 q 575 931 563 942 q 593 904 586 919 q 601 872 601 889 q 593 839 601 855 q 575 812 586 824 q 548 793 563 800 q 516 787 533 787 q 483 793 498 787 q 456 812 467 800 q 437 839 444 824 q 431 872 431 855 "},"№":{"x_min":139.03125,"x_max":1296.078125,"ha":1380,"o":"m 927 777 q 942 880 927 837 q 983 952 957 924 q 1041 993 1008 979 q 1110 1007 1074 1007 q 1179 993 1146 1007 q 1239 952 1213 979 q 1280 880 1264 924 q 1296 777 1296 837 q 1280 675 1296 718 q 1239 604 1265 632 q 1180 563 1214 577 q 1110 550 1146 550 q 1041 563 1074 550 q 983 604 1008 577 q 942 675 957 632 q 927 777 927 718 m 1029 776 q 1038 696 1029 727 q 1059 649 1046 666 q 1085 626 1071 632 q 1110 621 1100 621 q 1137 626 1122 621 q 1164 649 1151 632 q 1185 696 1176 666 q 1194 776 1194 727 q 1184 862 1194 831 q 1161 909 1174 893 q 1133 928 1148 924 q 1110 933 1119 933 q 1088 928 1102 933 q 1061 909 1074 924 q 1039 862 1048 893 q 1029 776 1029 831 m 973 379 q 958 391 963 379 q 954 419 954 403 q 958 447 954 434 q 973 460 963 460 l 1248 460 q 1263 447 1258 460 q 1268 419 1268 434 q 1263 391 1268 403 q 1248 379 1258 379 l 973 379 m 191 0 q 172 3 181 0 q 155 14 162 6 q 143 33 147 21 q 139 62 139 45 l 139 909 q 145 941 139 928 q 164 965 152 955 q 190 980 175 975 q 222 985 205 985 q 274 973 250 985 q 322 926 299 961 l 719 210 l 726 210 l 726 907 q 731 944 726 929 q 745 968 737 959 q 763 981 753 977 q 783 985 773 985 q 803 981 793 985 q 819 970 812 978 q 831 951 827 963 q 836 922 836 939 l 836 80 q 829 45 836 60 q 812 20 823 29 q 786 5 800 10 q 755 0 771 0 q 695 14 719 0 q 654 55 670 29 l 257 775 l 248 775 l 248 78 q 243 40 248 55 q 229 16 238 25 q 210 3 221 7 q 191 0 200 0 "},"₶":{"x_min":19.875,"x_max":722.46875,"ha":736,"o":"m 554 264 l 264 264 l 264 90 q 244 20 264 41 q 184 0 225 0 q 125 69 125 0 l 125 264 l 49 264 q 27 274 35 264 q 19 298 19 284 q 27 324 19 313 q 49 335 35 335 l 125 335 l 125 423 l 49 423 q 26 433 34 423 q 19 457 19 443 q 26 483 19 472 q 49 494 34 494 l 125 494 l 125 915 q 138 969 125 953 q 180 985 151 985 l 380 985 q 444 982 408 985 q 519 972 481 980 q 593 947 557 963 q 658 900 629 930 q 704 826 687 871 q 722 718 722 782 q 700 596 722 651 q 636 503 679 542 q 529 444 593 465 q 382 423 466 423 l 264 423 l 264 335 l 554 335 q 575 324 568 335 q 583 298 583 313 q 575 274 583 284 q 554 264 567 264 m 377 914 l 264 914 l 264 494 l 377 494 q 464 506 426 494 q 526 545 501 518 q 565 615 552 572 q 578 718 578 657 q 567 805 578 768 q 532 866 556 842 q 470 902 508 890 q 377 914 432 914 "},"]":{"x_min":48.71875,"x_max":358,"ha":469,"o":"m 358 944 l 358 -178 q 342 -231 358 -214 q 294 -248 326 -248 l 71 -248 q 54 -233 60 -248 q 48 -200 48 -219 q 54 -166 48 -180 q 71 -152 60 -152 l 231 -152 l 231 918 l 71 918 q 54 932 60 918 q 48 964 48 946 q 54 999 48 985 q 71 1014 60 1014 l 294 1014 q 342 997 326 1014 q 358 944 358 981 "},"А":{"x_min":58.328125,"x_max":873.546875,"ha":937,"o":"m 251 263 l 180 73 q 142 14 163 29 q 95 0 120 0 q 67 10 75 0 q 58 38 58 21 q 65 71 58 52 l 392 951 q 418 976 398 968 q 467 985 439 985 q 522 975 498 985 q 552 947 545 965 l 870 66 q 873 46 873 54 q 860 13 873 26 q 819 0 847 0 q 715 73 741 0 l 641 263 l 251 263 m 620 336 l 453 820 l 444 820 l 273 336 l 620 336 "},"m":{"x_min":111,"x_max":1040.109375,"ha":1152,"o":"m 897 114 l 897 461 q 871 572 897 540 q 796 605 846 605 q 743 590 770 605 q 696 550 717 575 q 660 495 674 526 q 647 431 647 463 l 647 98 q 642 49 647 68 q 627 19 637 29 q 599 4 616 8 q 559 0 583 0 q 516 15 528 0 q 504 65 504 31 l 504 461 q 478 572 504 540 q 402 605 453 605 q 349 591 376 605 q 301 556 323 578 q 267 505 280 534 q 254 444 254 476 l 254 98 q 249 49 254 68 q 234 19 244 30 q 207 4 224 8 q 166 0 191 0 q 122 15 134 0 q 111 65 111 31 l 111 637 q 124 683 111 670 q 170 697 138 697 q 251 577 251 697 l 251 568 l 254 568 q 289 618 270 594 q 333 659 308 642 q 391 686 358 676 q 469 697 424 697 q 641 553 618 697 l 644 553 q 684 610 663 584 q 732 656 706 637 q 790 686 758 675 q 862 697 821 697 q 1040 487 1040 697 l 1040 65 q 1028 15 1040 31 q 984 0 1017 0 q 917 26 937 0 q 897 114 897 52 "},"Ы":{"x_min":139.03125,"x_max":1096.015625,"ha":1235,"o":"m 288 877 l 288 551 l 455 551 q 597 537 537 551 q 704 494 657 524 q 774 409 750 463 q 798 277 798 355 q 786 187 798 228 q 751 118 773 146 q 700 68 730 90 q 639 33 670 46 q 574 13 609 21 q 510 2 539 5 q 453 0 481 0 l 202 0 q 139 69 139 0 l 139 915 q 153 969 139 953 q 200 985 167 985 q 266 957 243 985 q 288 877 288 930 m 427 478 l 287 478 l 287 74 l 434 74 q 491 79 464 74 q 546 98 518 84 q 595 133 575 111 q 628 192 615 156 q 641 278 641 229 q 586 432 641 387 q 427 478 531 478 m 1032 985 q 1096 915 1096 985 l 1096 69 q 1081 15 1096 31 q 1034 0 1067 0 q 968 27 991 0 q 946 107 946 54 l 946 894 q 967 964 946 943 q 1032 985 988 985 "},"Е":{"x_min":139,"x_max":779,"ha":835,"o":"m 698 744 q 637 764 656 744 q 617 834 617 785 l 617 912 l 288 912 l 288 547 l 580 547 q 608 535 598 547 q 619 508 619 523 q 615 494 619 501 q 606 482 612 487 q 594 473 601 476 q 580 470 587 470 l 288 470 l 288 73 l 638 73 l 638 150 q 658 220 638 199 q 719 241 677 241 q 764 224 749 241 q 779 171 779 208 l 779 51 q 759 10 779 20 q 695 0 739 0 l 202 0 q 139 69 139 0 l 139 915 q 202 985 139 985 l 674 985 q 738 974 718 985 q 758 933 758 964 l 758 813 q 743 760 758 776 q 698 744 728 744 "},"8":{"x_min":51,"x_max":684.640625,"ha":736,"o":"m 519 743 q 505 824 519 791 q 469 877 491 857 q 420 905 447 897 q 367 914 393 914 q 314 905 341 914 q 266 877 288 897 q 229 824 244 857 q 215 743 215 792 q 227 664 215 697 q 259 608 239 631 q 307 576 280 586 q 367 566 335 566 q 427 576 400 566 q 475 609 455 587 q 507 664 495 631 q 519 743 519 698 m 204 288 q 217 194 204 234 q 251 126 229 153 q 303 84 273 98 q 367 71 333 71 q 432 84 402 71 q 483 125 462 98 q 517 193 505 153 q 530 288 530 234 q 515 386 530 346 q 478 451 501 427 q 426 487 456 476 q 367 499 397 499 q 308 488 337 499 q 256 452 279 477 q 219 387 233 427 q 204 288 204 347 m 509 539 l 509 528 q 584 496 552 518 q 639 443 617 474 q 673 372 662 412 q 684 290 684 333 q 662 167 684 221 q 598 76 639 113 q 499 19 557 38 q 367 0 440 0 q 236 19 295 0 q 136 76 177 38 q 73 167 95 113 q 51 290 51 221 q 62 371 51 333 q 95 440 73 409 q 150 494 117 471 q 225 528 183 516 l 225 539 q 163 566 191 547 q 112 611 134 585 q 79 670 91 637 q 67 739 67 702 q 82 828 67 784 q 133 907 98 872 q 226 963 169 942 q 367 985 284 985 q 508 963 451 985 q 601 906 565 941 q 651 828 636 871 q 667 740 667 784 q 655 671 667 704 q 622 610 643 637 q 571 565 601 583 q 509 539 542 546 "},"Э":{"x_min":55.609375,"x_max":780.640625,"ha":855,"o":"m 196 98 q 343 71 259 71 q 543 172 470 71 q 623 470 617 274 l 234 470 q 219 481 225 470 q 213 508 213 492 q 219 535 213 523 q 234 547 225 547 l 620 547 q 598 692 615 628 q 556 797 581 756 q 496 865 531 838 q 423 902 461 891 q 343 914 386 914 q 206 898 280 914 l 206 820 q 186 751 206 772 q 126 730 166 730 q 66 800 66 730 l 66 879 q 78 923 66 910 q 123 947 89 936 q 352 985 251 985 q 780 514 780 985 q 765 350 780 426 q 715 208 749 274 q 631 98 681 143 q 507 26 580 52 q 344 0 434 0 q 109 44 208 0 q 66 69 77 57 q 55 111 55 82 l 55 194 q 115 261 55 261 q 175 240 155 261 q 196 173 196 220 l 196 98 "},"R":{"x_min":139,"x_max":813.671875,"ha":893,"o":"m 139 69 l 139 915 q 153 969 139 954 q 200 985 167 985 l 462 985 q 597 973 534 985 q 708 931 661 961 q 784 849 756 901 q 813 717 812 797 q 792 622 813 666 q 738 542 772 577 q 660 483 704 506 q 570 453 617 460 l 801 82 q 813 46 813 62 q 795 12 813 25 q 743 0 777 0 q 648 52 679 0 l 414 443 l 288 443 l 288 90 q 268 20 288 41 q 202 0 247 0 q 139 69 139 0 m 448 912 l 288 912 l 288 516 l 437 516 q 514 527 475 516 q 585 563 553 538 q 637 628 617 588 q 657 725 657 668 q 646 799 657 768 q 620 850 636 830 q 581 884 603 871 q 536 902 559 896 q 490 910 513 908 q 448 912 467 912 "},"ю":{"x_min":111.234375,"x_max":1011.234375,"ha":1080,"o":"m 861 348 q 694 656 861 656 q 527 348 527 656 q 539 201 527 260 q 574 106 552 142 q 627 55 596 70 q 694 41 657 41 q 761 55 731 41 q 814 105 792 70 q 849 200 836 140 q 861 348 861 259 m 694 -14 q 466 72 550 -14 q 377 323 383 159 l 255 323 l 255 98 q 235 19 255 39 q 166 0 215 0 q 123 15 134 0 q 111 65 111 31 l 111 631 q 123 681 111 665 q 166 697 134 697 q 234 670 213 697 q 255 583 255 644 l 255 392 l 379 392 q 473 630 389 548 q 694 712 557 712 q 926 619 841 712 q 1011 348 1011 526 q 927 79 1011 172 q 694 -14 844 -14 "},"o":{"x_min":69,"x_max":704.890625,"ha":775,"o":"m 386 0 q 252 21 311 0 q 152 87 193 43 q 90 195 111 130 q 69 348 69 261 q 91 502 69 436 q 155 611 113 568 q 255 675 196 654 q 386 697 313 697 q 519 675 460 697 q 620 610 578 654 q 683 502 661 567 q 704 348 704 436 q 683 195 704 261 q 622 87 662 130 q 522 21 581 43 q 386 0 462 0 m 386 56 q 455 68 424 56 q 508 113 485 81 q 542 202 530 146 q 555 348 555 259 q 542 491 555 434 q 507 581 529 547 q 454 627 485 614 q 386 641 423 641 q 321 627 351 641 q 268 581 290 614 q 232 491 245 547 q 219 348 219 434 q 231 206 219 263 q 264 116 242 150 q 317 69 286 83 q 386 56 348 56 "},"5":{"x_min":78,"x_max":664.3125,"ha":736,"o":"m 586 862 l 247 862 l 225 573 q 404 639 293 639 q 664 340 664 639 q 657 263 664 303 q 634 186 650 224 q 594 114 618 148 q 533 55 569 80 q 449 14 497 29 q 341 0 402 0 q 109 57 204 0 q 78 127 78 75 l 78 190 q 92 243 78 227 q 137 260 107 260 q 194 239 177 260 q 210 169 210 219 l 210 90 q 335 71 255 71 q 404 88 372 71 q 459 140 436 106 q 495 222 482 173 q 509 331 509 270 q 495 438 509 396 q 458 505 481 480 q 407 540 435 530 q 350 550 378 550 q 268 530 305 550 q 209 476 231 510 q 186 455 200 462 q 152 449 171 449 q 114 491 114 449 l 145 944 q 159 974 147 964 q 194 985 170 985 l 601 985 q 648 930 648 985 q 644 906 648 918 q 633 883 641 893 q 614 868 625 874 q 586 862 602 862 "},"Ѕ":{"x_min":85,"x_max":793.3125,"ha":876,"o":"m 670 732 q 609 751 628 732 q 589 817 589 771 l 589 888 q 581 891 586 889 q 566 895 575 893 q 497 909 533 905 q 425 914 462 914 q 342 898 377 914 q 285 858 308 882 q 251 802 262 833 q 240 741 240 772 q 248 680 240 706 q 278 635 257 655 q 336 598 300 615 q 428 561 372 580 q 485 540 463 548 q 525 525 507 532 q 560 511 542 518 q 605 493 578 504 q 647 474 631 482 q 675 459 663 466 q 698 443 687 451 q 724 423 709 435 q 775 361 757 398 q 793 269 793 323 q 767 160 793 210 q 691 75 741 111 q 569 20 641 40 q 404 0 496 0 q 315 6 364 0 q 223 23 267 12 q 145 45 179 33 q 99 71 111 58 q 89 112 89 82 l 89 195 q 148 262 89 262 q 209 241 189 262 q 229 174 229 221 l 229 100 q 399 71 317 71 q 499 86 455 71 q 574 127 544 101 q 621 185 605 152 q 638 254 638 218 q 622 318 638 291 q 570 370 606 346 q 478 417 534 394 q 342 468 422 440 l 287 491 q 258 503 270 497 q 236 514 246 508 q 215 526 226 520 q 192 539 205 531 q 145 576 165 556 q 112 620 125 596 q 93 671 99 643 q 85 733 87 700 q 107 836 85 790 q 173 916 130 883 q 277 967 216 949 q 415 985 338 985 q 672 944 532 985 q 700 934 689 939 q 718 921 711 928 q 727 904 724 914 q 730 879 730 894 l 730 799 q 670 732 730 732 "},"п":{"x_min":111.234375,"x_max":699.921875,"ha":811,"o":"m 699 631 l 699 65 q 688 15 699 31 q 644 0 676 0 q 576 26 597 0 q 555 113 555 52 l 555 632 l 255 632 l 255 98 q 235 19 255 39 q 166 0 215 0 q 123 15 134 0 q 111 65 111 31 l 111 631 q 123 681 111 665 q 166 697 134 697 l 644 697 q 688 681 676 697 q 699 631 699 665 "},"7":{"x_min":72,"x_max":672,"ha":736,"o":"m 72 933 q 92 974 72 963 q 155 985 112 985 l 620 985 q 659 971 647 985 q 672 936 672 957 q 668 908 672 922 q 657 882 664 895 q 544 676 591 777 q 465 476 498 574 q 412 282 433 377 q 375 93 390 186 q 369 58 371 75 q 361 28 368 42 q 338 7 354 15 q 288 0 322 0 q 226 10 244 0 q 208 41 208 21 q 226 137 208 68 q 293 358 256 249 q 373 567 330 467 q 463 754 416 666 q 559 912 510 842 l 205 912 l 205 832 q 188 762 205 782 q 132 742 171 742 q 86 758 101 742 q 72 811 72 774 l 72 933 "},"K":{"x_min":139,"x_max":841.640625,"ha":848,"o":"m 288 877 l 288 530 l 719 957 q 775 985 745 985 q 810 971 796 985 q 825 940 825 957 q 817 923 825 931 l 421 542 l 821 91 q 836 70 831 80 q 841 51 841 61 q 825 15 841 30 q 784 0 809 0 q 753 3 768 0 q 722 13 737 6 q 692 34 708 21 q 659 67 676 47 l 313 464 l 288 437 l 288 90 q 268 20 288 41 q 202 0 247 0 q 139 69 139 0 l 139 915 q 153 969 139 954 q 200 985 167 985 q 266 957 243 985 q 288 877 288 930 "},",":{"x_min":83,"x_max":294,"ha":378,"o":"m 116 -94 l 169 17 q 124 32 141 21 q 98 59 108 44 q 86 89 89 73 q 83 116 83 104 q 92 159 83 140 q 117 190 102 178 q 152 209 133 203 q 192 216 172 216 q 230 209 211 216 q 262 191 248 203 q 285 162 277 179 q 294 123 294 144 q 264 18 294 80 l 206 -105 q 154 -143 190 -143 q 125 -132 137 -143 q 113 -107 113 -121 q 116 -94 113 -101 "},"d":{"x_min":69,"x_max":670.109375,"ha":782,"o":"m 399 697 q 525 673 466 697 l 525 941 q 546 1028 525 1002 q 614 1055 567 1055 q 658 1039 647 1055 q 670 989 670 1024 l 670 65 q 658 15 670 31 q 615 0 647 0 q 531 144 531 0 l 527 145 q 487 89 508 115 q 440 43 466 63 q 381 11 413 23 q 306 0 348 0 q 219 15 262 0 q 143 68 176 31 q 89 166 109 105 q 69 317 69 227 q 91 486 69 414 q 155 604 113 557 q 259 673 197 650 q 399 697 320 697 m 219 328 q 230 220 219 265 q 259 146 240 175 q 304 105 277 118 q 362 92 330 92 q 420 108 390 92 q 472 150 449 124 q 511 207 496 175 q 527 268 527 238 l 527 558 q 517 588 527 573 q 492 615 508 603 q 451 633 475 626 q 399 641 428 641 q 325 627 359 641 q 269 577 292 613 q 232 481 245 541 q 219 328 219 421 "},"E":{"x_min":139,"x_max":779,"ha":835,"o":"m 698 744 q 637 764 656 744 q 617 834 617 785 l 617 912 l 288 912 l 288 547 l 580 547 q 608 535 598 547 q 619 508 619 523 q 615 494 619 501 q 606 482 612 487 q 594 473 601 476 q 580 470 587 470 l 288 470 l 288 73 l 638 73 l 638 150 q 658 220 638 199 q 719 241 677 241 q 764 224 749 241 q 779 171 779 208 l 779 51 q 759 10 779 20 q 695 0 739 0 l 202 0 q 139 69 139 0 l 139 915 q 202 985 139 985 l 674 985 q 738 974 718 985 q 758 933 758 964 l 758 813 q 743 760 758 776 q 698 744 728 744 "},"Y":{"x_min":24.859375,"x_max":740.390625,"ha":760,"o":"m 372 0 q 307 69 307 0 l 307 372 l 33 901 q 24 936 24 920 q 38 971 24 957 q 75 985 52 985 q 108 981 93 985 q 136 969 123 978 q 160 947 148 961 q 181 913 171 933 l 402 476 l 408 476 l 616 911 q 701 985 651 985 q 730 971 720 985 q 740 938 740 958 q 732 908 740 925 l 456 372 l 456 83 q 436 17 456 35 q 372 0 416 0 "},"\"":{"x_min":83,"x_max":491.484375,"ha":575,"o":"m 127 715 l 83 990 q 105 1021 83 1010 q 165 1032 128 1032 q 224 1020 200 1032 q 248 990 248 1008 l 202 715 q 165 696 198 696 q 138 701 150 696 q 127 715 127 706 m 370 715 l 326 990 q 348 1021 326 1010 q 408 1032 371 1032 q 468 1020 444 1032 q 491 990 491 1008 l 445 715 q 408 696 441 696 q 382 701 393 696 q 370 715 371 706 "},"‹":{"x_min":97,"x_max":465.28125,"ha":562,"o":"m 458 596 l 251 326 l 458 62 q 465 44 465 53 q 459 28 465 36 q 446 14 454 21 q 428 4 438 8 q 409 0 418 0 q 388 8 395 0 l 108 298 q 97 326 97 310 q 108 354 97 342 l 388 650 q 409 659 397 659 q 428 655 418 659 q 446 645 438 651 q 459 631 454 639 q 465 614 465 623 q 458 596 465 605 "},"Є":{"x_min":73.921875,"x_max":779.28125,"ha":807,"o":"m 619 462 l 230 462 q 252 272 231 350 q 314 151 274 195 q 405 90 354 108 q 526 72 456 72 q 708 112 611 72 l 734 123 q 746 126 744 126 q 769 113 759 126 q 779 84 779 100 q 760 56 779 64 l 737 47 q 487 0 621 0 q 175 125 276 0 q 73 483 73 251 q 106 707 73 610 q 196 864 138 805 q 330 954 254 924 q 498 985 406 985 q 701 955 611 985 q 746 932 735 944 q 758 887 758 919 l 758 804 q 743 750 758 767 q 698 734 729 734 q 637 754 657 734 q 617 823 617 775 l 617 899 q 516 914 563 914 q 318 818 394 914 q 231 539 243 722 l 619 539 q 634 527 629 539 q 640 500 640 516 q 634 473 640 485 q 619 462 629 462 "},"„":{"x_min":84,"x_max":564,"ha":647,"o":"m 117 -94 l 170 17 q 125 32 142 21 q 99 59 109 44 q 87 89 90 73 q 84 116 84 104 q 93 159 84 140 q 118 190 103 178 q 153 209 134 203 q 193 216 173 216 q 231 209 212 216 q 263 191 249 203 q 286 162 278 179 q 295 123 295 144 q 265 18 295 80 l 207 -105 q 155 -143 191 -143 q 126 -132 138 -143 q 114 -107 114 -121 q 117 -94 114 -101 m 386 -94 l 439 17 q 395 32 412 21 q 368 58 378 44 q 356 89 359 73 q 353 116 353 104 q 362 159 353 140 q 387 190 372 178 q 422 209 403 203 q 462 216 442 216 q 500 209 481 216 q 532 191 518 203 q 555 162 547 179 q 564 123 564 144 q 534 18 564 80 l 476 -105 q 425 -143 460 -143 q 395 -132 407 -143 q 383 -107 383 -121 q 386 -94 383 -101 "},"ч":{"x_min":69.171875,"x_max":626.671875,"ha":737,"o":"m 208 583 l 208 428 q 236 331 208 363 q 327 300 263 300 q 482 333 416 300 l 482 597 q 502 676 482 656 q 571 697 522 697 q 614 681 602 697 q 626 631 626 665 l 626 65 q 614 15 626 31 q 571 0 602 0 q 503 26 524 0 q 482 113 482 52 l 482 273 q 387 243 445 255 q 278 231 329 231 q 118 276 166 231 q 69 416 69 321 l 69 631 q 81 681 69 665 q 124 697 93 697 q 189 671 170 697 q 208 583 208 645 "},"|":{"x_min":125,"x_max":238.9375,"ha":364,"o":"m 125 -48 l 125 992 q 141 1018 125 1009 q 181 1028 158 1028 q 221 1018 204 1028 q 238 992 238 1008 l 238 -48 q 221 -73 238 -64 q 181 -83 205 -83 q 141 -73 158 -83 q 125 -48 125 -64 "},"џ":{"x_min":111.234375,"x_max":699.921875,"ha":811,"o":"m 412 -212 q 365 -195 383 -212 q 348 -145 348 -179 l 348 0 l 166 0 q 123 15 134 0 q 111 65 111 31 l 111 631 q 123 681 111 665 q 166 697 134 697 q 234 670 213 697 q 255 583 255 644 l 255 65 l 555 65 l 555 598 q 575 677 555 658 q 644 697 595 697 q 688 681 676 697 q 699 631 699 665 l 699 65 q 688 15 699 31 q 644 0 676 0 l 476 0 l 476 -144 q 461 -196 476 -180 q 412 -212 446 -212 "},"љ":{"x_min":13.5625,"x_max":1041.75,"ha":1080,"o":"m 571 0 q 527 15 539 0 q 515 65 515 31 l 515 632 l 299 632 l 299 486 q 283 258 299 355 q 223 95 266 162 q 157 24 192 48 q 73 0 122 0 q 30 13 46 0 q 13 54 13 26 q 31 90 13 72 q 73 113 48 109 q 122 134 101 120 q 157 166 143 148 q 180 213 170 184 q 196 269 190 243 q 204 337 201 296 q 207 411 206 379 q 208 494 208 443 l 208 631 q 220 680 208 664 q 266 697 231 697 l 604 697 q 647 681 635 697 q 659 631 659 665 l 659 401 l 781 401 q 981 352 920 401 q 1041 210 1041 304 q 964 54 1041 108 q 743 0 886 0 l 571 0 m 658 62 l 737 62 q 853 95 815 62 q 891 205 891 128 q 852 310 891 281 q 737 339 812 339 l 658 339 l 658 62 "},"И":{"x_min":139.03125,"x_max":889.15625,"ha":1028,"o":"m 825 985 q 889 915 889 985 l 889 69 q 874 15 889 31 q 828 0 860 0 q 761 27 784 0 q 739 107 739 54 l 739 791 l 288 48 q 273 25 280 34 q 247 8 266 16 q 202 0 229 0 q 139 69 139 0 l 139 915 q 153 969 139 953 q 200 985 167 985 q 266 957 243 985 q 288 877 288 930 l 288 193 l 739 936 q 751 954 746 948 q 766 969 756 961 q 790 981 775 977 q 825 985 805 985 "},"й":{"x_min":111.234375,"x_max":704,"ha":815,"o":"m 704 631 l 704 65 q 692 15 704 31 q 648 0 680 0 q 580 25 601 0 q 559 112 559 51 l 559 503 l 245 35 q 214 8 232 16 q 166 0 196 0 q 123 15 134 0 q 111 65 111 31 l 111 631 q 123 681 111 665 q 166 697 134 697 q 234 670 213 697 q 255 582 255 644 l 255 177 l 568 655 q 599 687 582 678 q 648 697 617 697 q 692 681 680 697 q 704 631 704 665 m 487 903 q 515 951 493 936 q 569 966 538 966 q 611 950 592 966 q 629 905 629 933 q 570 809 629 846 q 405 772 510 772 q 243 809 301 772 q 184 906 184 846 q 203 950 184 934 q 245 966 221 966 q 298 951 276 966 q 326 903 320 936 q 349 845 332 865 q 405 825 366 825 q 463 845 444 825 q 487 903 482 866 "},"b":{"x_min":111,"x_max":712.5625,"ha":786,"o":"m 255 941 l 255 569 l 258 569 q 474 697 328 697 q 564 684 522 697 q 639 636 607 671 q 692 540 672 602 q 712 383 711 479 q 689 218 712 290 q 624 98 667 147 q 520 25 581 50 q 381 0 458 0 q 202 31 285 0 q 163 49 180 40 q 135 73 146 59 q 117 107 123 88 q 111 152 111 126 l 111 989 q 122 1039 111 1024 q 166 1055 134 1055 q 234 1028 213 1055 q 255 941 255 1002 m 254 447 l 254 129 q 262 101 254 114 q 288 77 271 87 q 328 61 304 67 q 381 56 351 56 q 562 372 562 56 q 550 491 562 446 q 520 562 539 537 q 474 596 500 587 q 418 605 448 605 q 362 591 391 605 q 309 554 333 577 q 269 504 285 532 q 254 447 254 476 "},"q":{"x_min":69,"x_max":670.109375,"ha":782,"o":"m 670 544 l 670 -232 q 658 -282 670 -267 q 614 -298 647 -298 q 573 -293 590 -298 q 545 -279 556 -289 q 530 -249 535 -268 q 525 -199 525 -230 l 525 127 l 522 127 q 306 0 452 0 q 69 313 69 0 q 91 482 69 410 q 156 602 113 554 q 259 673 198 650 q 399 697 321 697 q 470 692 434 697 q 539 678 506 687 q 600 655 572 669 q 645 623 628 641 q 670 544 670 597 m 527 249 l 527 567 q 518 595 527 582 q 493 619 509 609 q 453 635 476 629 q 399 641 429 641 q 325 626 359 641 q 269 575 292 611 q 232 478 245 539 q 219 324 219 417 q 230 210 219 254 q 259 139 240 165 q 304 102 278 113 q 362 92 331 92 q 418 105 389 92 q 471 142 447 119 q 511 192 495 164 q 527 249 527 220 "},"Љ":{"x_min":27.8125,"x_max":1370.6875,"ha":1434,"o":"m 768 0 q 719 16 735 0 q 704 69 704 33 l 704 911 l 384 911 l 384 771 q 372 460 384 586 q 328 238 360 333 q 294 162 316 201 q 242 85 272 123 q 171 24 212 48 q 87 0 130 0 q 45 23 62 0 q 27 75 27 46 q 41 111 27 100 q 103 139 54 123 q 234 287 194 170 q 263 424 253 343 q 274 570 272 506 q 275 766 275 634 l 275 915 q 289 969 275 953 q 336 985 303 985 l 790 985 q 838 968 822 985 q 854 915 854 951 l 854 551 l 1028 551 q 1169 537 1109 551 q 1276 493 1229 524 q 1346 409 1323 462 q 1370 277 1370 355 q 1357 187 1370 228 q 1323 118 1344 146 q 1272 68 1302 90 q 1211 33 1242 46 q 1146 13 1181 21 q 1082 2 1110 5 q 1024 0 1053 0 l 768 0 m 1000 478 l 852 478 l 852 74 l 1007 74 q 1064 79 1037 74 q 1119 98 1091 84 q 1167 133 1147 111 q 1201 192 1188 156 q 1214 278 1214 229 q 1159 432 1214 387 q 1000 478 1104 478 "},"р":{"x_min":111,"x_max":712.5625,"ha":786,"o":"m 111 -240 l 111 637 q 165 697 111 697 q 231 668 210 697 q 252 577 252 640 l 252 566 l 254 566 q 294 621 272 597 q 342 662 316 646 q 401 688 369 679 q 474 697 434 697 q 712 383 712 697 q 689 215 712 287 q 624 96 667 144 q 520 24 581 48 q 381 0 458 0 q 255 26 311 0 l 255 -206 q 250 -256 255 -236 q 235 -286 245 -275 q 207 -301 224 -297 q 166 -306 191 -306 q 122 -290 134 -306 q 111 -240 111 -274 m 562 372 q 551 486 562 442 q 521 557 540 531 q 476 594 503 583 q 418 605 450 605 q 361 590 390 605 q 308 553 332 576 q 269 501 284 531 q 254 442 254 472 l 254 140 q 262 109 254 125 q 288 82 271 94 q 328 63 304 70 q 381 56 352 56 q 455 71 422 56 q 512 124 489 87 q 549 221 536 161 q 562 372 562 282 "},"т":{"x_min":18.3125,"x_max":670.765625,"ha":689,"o":"m 543 632 l 415 632 l 415 90 q 396 17 415 34 q 336 0 378 0 q 284 15 297 0 q 270 65 270 31 l 270 632 l 145 632 l 145 580 q 129 508 145 525 q 69 491 113 491 q 29 505 40 491 q 18 549 18 520 l 18 654 q 62 697 18 697 l 626 697 q 670 654 670 697 l 670 549 q 659 505 670 520 q 619 491 648 491 q 559 508 575 491 q 543 580 543 525 l 543 632 "},"П":{"x_min":139.03125,"x_max":887.796875,"ha":1026,"o":"m 288 985 l 823 985 q 871 968 855 985 q 887 915 887 951 l 887 69 q 873 15 887 31 q 826 0 859 0 q 760 27 783 0 q 737 107 737 54 l 737 911 l 288 911 l 288 90 q 267 20 288 41 q 202 0 246 0 q 139 69 139 0 l 139 915 q 153 969 139 953 q 200 985 167 985 l 288 985 "},"z":{"x_min":41.84375,"x_max":616.5,"ha":659,"o":"m 115 697 l 565 697 q 604 684 592 697 q 616 657 616 672 q 611 623 616 638 q 596 596 605 608 l 196 65 l 479 65 l 479 98 q 483 143 479 126 q 495 170 486 161 q 519 183 504 180 q 555 187 533 187 q 595 173 584 187 q 607 128 607 159 l 607 42 q 562 0 607 0 l 94 0 q 54 11 66 0 q 41 39 41 23 q 62 101 41 71 l 459 632 l 199 632 l 199 598 q 195 554 199 571 q 183 527 192 537 q 159 513 174 517 q 122 510 144 510 q 82 523 94 510 q 71 568 71 537 l 71 654 q 115 697 71 697 "},"™":{"x_min":34.59375,"x_max":822,"ha":899,"o":"m 305 952 l 252 952 l 252 681 q 240 644 252 653 q 205 635 228 635 q 165 668 165 635 l 165 952 l 112 952 l 112 926 q 101 891 112 900 q 67 882 90 882 q 34 911 34 882 l 34 962 q 56 985 34 985 l 360 985 q 383 962 383 985 l 383 911 q 349 882 383 882 q 316 891 326 882 q 305 926 305 900 l 305 952 m 432 665 l 432 951 q 445 975 432 966 q 476 985 458 985 q 531 963 523 985 l 630 739 l 723 963 q 745 979 727 974 q 781 985 763 985 q 810 976 799 985 q 822 951 822 967 l 822 668 q 787 635 822 635 q 734 692 734 635 l 734 857 l 731 857 l 648 657 q 619 635 638 635 q 591 654 599 635 l 498 869 l 495 869 l 495 692 q 487 647 495 660 q 462 635 480 635 q 440 643 448 635 q 432 665 432 651 "},"Ж":{"x_min":65.109375,"x_max":1223.515625,"ha":1231,"o":"m 571 540 l 571 915 q 586 969 571 953 q 638 985 601 985 q 698 968 678 985 q 718 902 718 952 l 718 540 l 741 540 l 1097 957 q 1151 985 1120 985 q 1186 971 1172 985 q 1199 940 1199 957 q 1193 923 1199 930 l 848 530 l 1204 91 q 1223 51 1223 70 q 1207 15 1223 31 q 1166 0 1190 0 q 1104 13 1132 0 q 1044 67 1075 26 l 741 465 l 718 465 l 718 83 q 699 17 718 35 q 641 0 680 0 q 587 16 604 0 q 571 69 571 32 l 571 465 l 547 465 l 244 67 q 184 13 212 26 q 122 0 156 0 q 81 15 97 0 q 65 51 65 31 q 84 91 65 69 l 440 530 l 95 923 q 88 940 88 930 q 102 971 88 957 q 137 985 116 985 q 191 957 168 985 l 547 540 l 571 540 "},"и":{"x_min":111.234375,"x_max":704,"ha":815,"o":"m 704 631 l 704 65 q 692 15 704 31 q 648 0 680 0 q 580 25 601 0 q 559 112 559 51 l 559 503 l 245 35 q 215 8 233 16 q 166 0 197 0 q 123 15 134 0 q 111 65 111 31 l 111 631 q 123 681 111 665 q 166 697 134 697 q 234 670 213 697 q 255 582 255 644 l 255 177 l 568 655 q 599 687 582 678 q 648 697 617 697 q 692 681 680 697 q 704 631 704 665 "},"~":{"x_min":125,"x_max":891,"ha":1015,"o":"m 782 576 q 843 612 798 612 q 878 601 865 612 q 891 577 891 591 q 886 555 891 565 q 834 457 862 493 q 776 401 806 420 q 717 377 747 382 q 663 372 688 372 q 568 389 613 372 q 483 426 522 406 q 411 463 443 446 q 354 481 378 481 q 282 459 309 481 q 233 388 254 437 q 223 374 230 380 q 207 363 216 368 q 189 356 198 358 q 171 354 179 354 q 125 389 125 354 q 131 421 125 399 q 164 494 142 462 q 214 546 186 525 q 276 579 243 568 q 347 590 310 590 q 419 579 384 590 q 486 555 454 569 q 548 525 519 541 q 602 498 577 509 q 671 482 642 482 q 733 504 708 482 q 782 576 759 526 "},"Н":{"x_min":139,"x_max":891.890625,"ha":1031,"o":"m 828 985 q 891 915 891 985 l 891 69 q 877 15 891 30 q 830 0 863 0 q 764 27 787 0 q 742 107 742 54 l 742 470 l 288 470 l 288 90 q 268 20 288 41 q 202 0 247 0 q 139 69 139 0 l 139 915 q 153 969 139 954 q 200 985 167 985 q 266 957 243 985 q 288 877 288 930 l 288 547 l 742 547 l 742 894 q 762 964 742 943 q 828 985 783 985 "},"ф":{"x_min":73.921875,"x_max":991.5625,"ha":1065,"o":"m 604 959 l 604 613 l 605 613 q 678 676 634 655 q 766 697 721 697 q 991 364 991 697 q 920 94 991 189 q 730 0 849 0 q 604 46 652 0 l 604 -218 q 586 -288 604 -270 q 527 -306 568 -306 q 474 -290 488 -306 q 461 -240 461 -274 l 461 60 q 302 0 407 0 q 133 85 193 0 q 73 343 73 170 q 88 482 73 420 q 125 583 102 543 q 179 648 148 622 q 242 686 210 675 q 308 697 274 697 q 398 681 360 697 q 459 623 435 666 l 461 623 l 461 989 q 474 1039 461 1023 q 526 1055 487 1055 q 586 1036 568 1055 q 604 959 604 1018 m 462 169 l 462 499 q 355 603 462 603 q 251 538 284 603 q 218 343 218 474 q 246 131 218 198 q 349 65 275 65 q 426 98 389 65 q 462 169 462 132 m 602 486 l 602 166 q 633 91 602 118 q 708 65 663 65 q 813 134 780 65 q 847 352 847 204 q 817 542 847 481 q 719 603 788 603 q 635 574 668 603 q 602 486 602 546 "},"л":{"x_min":13.5625,"x_max":666.6875,"ha":778,"o":"m 666 631 l 666 65 q 654 15 666 31 q 611 0 642 0 q 543 26 564 0 q 522 113 522 52 l 522 632 l 299 632 l 299 486 q 283 258 299 355 q 223 95 266 162 q 157 24 192 48 q 73 0 122 0 q 30 13 46 0 q 13 54 13 26 q 31 90 13 72 q 73 113 48 109 q 122 134 101 120 q 157 166 143 148 q 180 213 170 184 q 196 269 190 243 q 204 337 201 296 q 207 411 206 379 q 208 494 208 443 l 208 631 q 220 680 208 664 q 266 697 231 697 l 611 697 q 654 681 642 697 q 666 631 666 665 "},"[":{"x_min":111,"x_max":420.953125,"ha":469,"o":"m 111 -178 l 111 944 q 174 1014 111 1014 l 397 1014 q 414 999 408 1014 q 420 964 420 984 q 414 932 420 946 q 397 918 408 918 l 237 918 l 237 -152 l 397 -152 q 414 -166 408 -152 q 420 -200 420 -181 q 414 -233 420 -219 q 397 -248 408 -248 l 174 -248 q 126 -231 142 -248 q 111 -178 111 -214 "},"Щ":{"x_min":139.03125,"x_max":1383.578125,"ha":1420,"o":"m 773 915 l 773 74 l 1108 74 l 1108 894 q 1129 964 1108 943 q 1194 985 1150 985 q 1242 968 1226 985 q 1258 915 1258 951 l 1258 74 l 1300 74 q 1363 63 1343 74 q 1383 22 1383 52 l 1383 -162 q 1323 -232 1383 -232 q 1263 -210 1283 -232 q 1243 -141 1243 -189 l 1243 0 l 202 0 q 139 69 139 0 l 139 915 q 153 969 139 953 q 200 985 167 985 q 266 957 243 985 q 288 877 288 930 l 288 74 l 623 74 l 623 901 q 644 967 623 949 q 710 985 664 985 q 773 915 773 985 "},"L":{"x_min":139,"x_max":745,"ha":793,"o":"m 685 260 q 745 190 745 260 l 745 44 q 724 10 745 20 q 661 0 704 0 l 202 0 q 139 69 139 0 l 139 915 q 153 969 139 954 q 200 985 167 985 q 266 957 243 985 q 288 877 288 930 l 288 73 l 604 73 l 604 169 q 624 239 604 218 q 685 260 644 260 "},"К":{"x_min":139.03125,"x_max":848.453125,"ha":842,"o":"m 288 877 l 288 541 l 318 541 l 726 957 q 781 985 752 985 q 817 971 803 985 q 832 940 832 957 q 825 923 832 930 l 429 531 l 829 91 q 848 51 848 70 q 832 15 848 30 q 791 0 817 0 q 731 13 760 0 q 666 67 702 27 l 318 464 l 288 464 l 288 90 q 267 20 288 41 q 202 0 246 0 q 139 69 139 0 l 139 915 q 153 969 139 953 q 200 985 167 985 q 266 957 243 985 q 288 877 288 930 "}," ":{"x_min":0,"x_max":0,"ha":416},"%":{"x_min":83,"x_max":1168,"ha":1251,"o":"m 736 150 q 722 269 722 200 q 732 370 722 326 q 759 446 742 414 q 799 500 776 478 q 846 535 821 521 q 897 554 871 548 q 946 560 922 560 q 993 554 968 560 q 1043 535 1019 549 q 1090 500 1068 522 q 1130 446 1113 479 q 1157 370 1147 414 q 1168 269 1168 327 q 1157 167 1168 211 q 1130 90 1147 123 q 1090 37 1113 58 q 1043 2 1068 15 q 993 -15 1018 -10 q 946 -21 968 -21 q 889 -13 919 -21 q 829 13 858 -5 q 775 66 800 33 q 736 150 751 99 m 841 269 q 851 152 841 197 q 876 82 861 108 q 910 48 891 57 q 946 39 928 39 q 981 48 963 39 q 1014 82 999 57 q 1040 152 1030 107 q 1049 269 1049 197 q 1040 383 1049 338 q 1016 454 1031 428 q 983 490 1001 480 q 946 500 964 500 q 910 491 929 500 q 877 457 892 482 q 851 387 861 432 q 841 269 841 342 m 307 1007 q 354 1001 329 1007 q 404 982 380 996 q 451 947 429 969 q 491 893 474 926 q 518 817 508 861 q 529 716 529 774 q 507 574 529 630 q 452 485 485 518 q 380 439 419 452 q 307 426 341 426 q 234 438 273 426 q 161 483 195 451 q 105 572 127 516 q 83 716 83 628 q 105 859 83 802 q 160 948 127 915 q 233 994 194 981 q 307 1007 272 1007 m 202 716 q 212 598 202 643 q 238 528 222 553 q 271 494 253 503 q 307 486 290 486 q 344 495 325 486 q 377 531 362 505 q 401 602 392 557 q 410 716 410 647 q 400 834 410 789 q 375 904 390 879 q 341 938 360 929 q 307 947 323 947 q 272 938 290 947 q 238 905 254 930 q 212 835 222 881 q 202 716 202 790 m 975 1015 l 340 -106 q 320 -115 334 -115 q 301 -111 311 -115 q 280 -103 290 -108 q 264 -91 271 -98 q 258 -77 258 -85 q 259 -70 258 -74 l 893 1058 q 909 1067 897 1067 q 930 1062 918 1067 q 952 1052 942 1058 q 969 1037 962 1045 q 976 1022 976 1029 q 975 1015 976 1019 "},"P":{"x_min":139,"x_max":808.671875,"ha":857,"o":"m 433 382 l 288 382 l 288 90 q 268 20 288 41 q 202 0 247 0 q 139 69 139 0 l 139 915 q 153 969 139 954 q 200 985 167 985 l 432 985 q 486 984 455 985 q 550 978 516 983 q 620 961 584 973 q 694 928 657 950 q 738 892 717 913 q 775 843 759 871 q 799 779 791 815 q 808 697 808 742 q 785 573 808 630 q 715 473 762 516 q 598 406 668 430 q 433 382 527 382 m 432 912 l 288 912 l 288 455 l 432 455 q 594 513 536 455 q 652 697 652 572 q 639 789 652 749 q 601 856 627 829 q 532 898 574 884 q 432 912 491 912 "},"_":{"x_min":-27.8125,"x_max":842.359375,"ha":815,"o":"m 815 -302 l 0 -302 l -2 -302 q -21 -284 -14 -302 q -27 -246 -27 -267 q -21 -208 -27 -225 q -2 -191 -14 -191 l 0 -191 l 815 -191 q 835 -208 828 -191 q 842 -246 842 -225 q 835 -285 842 -269 q 815 -302 828 -302 "},"+":{"x_min":124.5625,"x_max":873.765625,"ha":1000,"o":"m 444 429 l 152 429 l 150 429 q 131 446 137 429 q 124 484 124 463 q 131 522 124 505 q 150 540 137 540 l 152 540 l 444 540 l 444 831 q 460 851 444 845 q 499 858 477 858 q 538 851 521 858 q 555 831 555 845 l 555 540 l 846 540 q 866 523 860 540 q 873 484 873 506 q 866 445 873 462 q 846 429 860 429 l 555 429 l 555 137 l 555 135 q 537 116 555 122 q 499 109 520 109 q 461 116 478 109 q 444 135 444 122 l 444 137 l 444 429 "},"‚":{"x_min":97,"x_max":309,"ha":406,"o":"m 131 -94 l 183 17 q 139 32 156 21 q 112 58 122 44 q 100 89 103 73 q 97 116 97 104 q 106 159 97 140 q 131 190 116 178 q 166 209 147 203 q 207 216 186 216 q 244 209 226 216 q 277 191 262 203 q 300 162 291 179 q 309 123 309 144 q 279 18 309 80 l 221 -105 q 169 -143 204 -143 q 139 -132 152 -143 q 127 -107 127 -121 q 131 -94 127 -102 "},"ѓ":{"x_min":111.234375,"x_max":598.875,"ha":617,"o":"m 111 631 q 123 681 111 665 q 166 697 134 697 l 554 697 q 598 654 598 697 l 598 536 q 587 492 598 506 q 547 478 575 478 q 486 495 502 478 q 470 566 470 511 l 470 632 l 255 632 l 255 98 q 235 19 255 39 q 166 0 215 0 q 123 15 134 0 q 111 65 111 31 l 111 631 m 517 993 l 381 813 q 330 791 364 791 q 303 798 314 791 q 293 817 293 805 q 295 830 293 825 l 368 1004 q 397 1030 375 1021 q 446 1040 419 1040 q 501 1030 481 1040 q 522 1006 522 1021 q 517 993 522 997 "},"ы":{"x_min":111.234375,"x_max":866.765625,"ha":978,"o":"m 255 582 l 255 401 l 372 401 q 569 352 510 401 q 629 210 629 304 q 553 54 629 108 q 333 0 476 0 l 166 0 q 123 15 134 0 q 111 65 111 31 l 111 631 q 123 681 111 665 q 166 697 134 697 q 234 670 213 697 q 255 582 255 644 m 254 62 l 327 62 q 443 95 405 62 q 482 205 482 128 q 442 310 482 281 q 327 339 402 339 l 254 339 l 254 62 m 866 631 l 866 65 q 854 15 866 31 q 811 0 843 0 q 743 26 764 0 q 722 113 722 52 l 722 597 q 742 677 722 657 q 811 697 762 697 q 854 681 843 697 q 866 631 866 665 "},"'":{"x_min":83,"x_max":248.484375,"ha":332,"o":"m 127 715 l 83 990 q 105 1021 83 1010 q 165 1032 128 1032 q 224 1020 200 1032 q 248 990 248 1008 l 202 715 q 165 696 198 696 q 138 701 150 696 q 127 715 127 706 "},"ї":{"x_min":-12.890625,"x_max":394.71875,"ha":380,"o":"m -12 872 q 12 931 -12 906 q 71 957 37 957 q 131 931 106 957 q 156 872 156 906 q 131 812 156 838 q 71 787 106 787 q 12 812 37 787 q -12 872 -12 838 m 225 872 q 250 931 225 906 q 309 957 275 957 q 369 931 343 957 q 394 872 394 906 q 369 812 394 838 q 309 787 343 787 q 250 812 275 787 q 225 872 225 838 m 262 604 l 262 94 q 242 17 262 35 q 173 0 223 0 q 129 15 141 0 q 118 65 118 31 l 118 631 q 129 681 118 665 q 173 697 141 697 q 262 604 262 697 "},"Р":{"x_min":139,"x_max":808.671875,"ha":857,"o":"m 433 382 l 288 382 l 288 90 q 268 20 288 41 q 202 0 247 0 q 139 69 139 0 l 139 915 q 153 969 139 954 q 200 985 167 985 l 432 985 q 486 984 455 985 q 550 978 516 983 q 620 961 584 973 q 694 928 657 950 q 738 892 717 913 q 775 843 759 871 q 799 779 791 815 q 808 697 808 742 q 785 573 808 630 q 715 473 762 516 q 598 406 668 430 q 433 382 527 382 m 432 912 l 288 912 l 288 455 l 432 455 q 594 513 536 455 q 652 697 652 572 q 639 789 652 749 q 601 856 627 829 q 532 898 574 884 q 432 912 491 912 "},"щ":{"x_min":111.234375,"x_max":1079.046875,"ha":1100,"o":"m 951 0 l 166 0 q 123 15 134 0 q 111 65 111 31 l 111 631 q 123 681 111 665 q 166 697 134 697 q 234 670 213 697 q 255 583 255 644 l 255 65 l 470 65 l 470 609 q 487 679 470 661 q 541 697 505 697 q 597 679 581 697 q 613 609 613 661 l 613 65 l 829 65 l 829 598 q 849 677 829 658 q 918 697 869 697 q 961 681 949 697 q 973 631 973 665 l 973 65 l 1034 65 q 1079 22 1079 65 l 1079 -107 q 1067 -151 1079 -137 q 1028 -166 1056 -166 q 967 -148 984 -166 q 951 -76 951 -131 l 951 0 "},"T":{"x_min":27,"x_max":875,"ha":903,"o":"m 734 912 l 525 912 l 525 83 q 505 17 525 35 q 439 0 485 0 q 376 69 376 0 l 376 912 l 167 912 l 167 813 q 147 743 167 764 q 86 723 127 723 q 27 792 27 723 l 27 933 q 47 974 27 964 q 110 985 67 985 l 791 985 q 854 974 834 985 q 875 933 875 964 l 875 792 q 860 739 875 755 q 815 723 845 723 q 754 743 774 723 q 734 813 734 764 l 734 912 "},"Њ":{"x_min":139.03125,"x_max":1397.140625,"ha":1460,"o":"m 880 877 l 880 545 l 1053 545 q 1169 537 1119 545 q 1263 510 1220 529 q 1336 461 1307 492 q 1381 384 1365 431 q 1397 275 1397 338 q 1384 184 1397 226 q 1350 116 1371 143 q 1298 66 1328 88 q 1238 32 1268 45 q 1172 12 1207 20 q 1108 2 1137 5 q 1051 0 1080 0 l 794 0 q 730 69 730 0 l 730 471 l 288 471 l 288 90 q 267 20 288 41 q 202 0 246 0 q 139 69 139 0 l 139 915 q 153 969 139 953 q 200 985 167 985 q 266 957 243 985 q 288 877 288 930 l 288 548 l 730 548 l 730 915 q 744 969 730 953 q 791 985 758 985 q 857 957 834 985 q 880 877 880 930 m 1026 471 l 878 471 l 878 74 l 1033 74 q 1090 78 1063 74 q 1145 97 1117 83 q 1194 132 1174 110 q 1227 190 1214 154 q 1240 275 1240 227 q 1225 371 1240 332 q 1181 431 1210 410 q 1114 462 1151 453 q 1026 471 1077 471 "},"є":{"x_min":69.171875,"x_max":653.125,"ha":681,"o":"m 514 350 q 507 327 514 337 q 489 318 500 318 l 219 318 q 264 125 223 189 q 398 61 305 61 q 442 64 421 61 q 479 76 462 67 q 508 91 496 84 q 534 111 520 97 q 553 131 547 124 q 571 152 559 137 q 585 170 583 167 q 620 185 600 185 q 643 177 633 185 q 653 156 653 169 q 634 109 653 132 q 383 0 545 0 q 236 25 298 0 q 139 99 174 51 q 86 208 103 147 q 69 347 69 269 q 85 482 69 422 q 131 581 102 541 q 203 647 161 621 q 293 685 245 673 q 398 697 341 697 q 563 656 496 697 q 637 552 637 612 q 619 513 637 528 q 579 498 600 498 q 531 512 548 498 q 503 556 514 527 q 466 618 491 595 q 396 641 442 641 q 267 582 309 641 q 219 382 224 524 l 489 382 q 507 372 500 382 q 514 350 514 362 "},"j":{"x_min":-24,"x_max":274,"ha":380,"o":"m 118 631 q 129 681 118 665 q 173 697 141 697 q 240 674 219 697 q 262 602 262 651 l 262 168 q 248 24 262 93 q 209 -103 234 -44 q 151 -209 185 -162 q 77 -282 117 -255 q 18 -306 43 -306 q -11 -298 0 -306 q -24 -276 -24 -291 q -19 -255 -24 -263 q -7 -238 -15 -246 q 13 -223 0 -231 q 45 -202 26 -215 q 78 -173 64 -191 q 101 -125 92 -156 q 113 -50 109 -95 q 118 60 118 -5 l 118 631 m 127 812 q 102 873 102 837 q 108 905 102 889 q 127 933 115 921 q 154 951 138 944 q 187 959 169 959 q 220 951 204 959 q 248 933 236 944 q 266 905 259 921 q 274 873 274 889 q 267 839 274 855 q 248 812 260 824 q 220 793 236 800 q 187 787 205 787 q 127 812 152 787 "},"1":{"x_min":104.875,"x_max":650.15625,"ha":736,"o":"m 328 889 l 174 831 q 140 824 153 824 q 114 836 123 824 q 104 864 104 849 q 134 895 104 884 l 329 971 q 404 985 368 985 q 458 968 441 985 q 475 915 475 952 l 475 73 l 595 73 q 638 62 627 73 q 650 32 650 51 q 608 0 650 0 l 195 0 q 153 32 153 0 q 208 73 153 73 l 328 73 l 328 889 "},"›":{"x_min":97,"x_max":465,"ha":562,"o":"m 311 326 l 104 596 q 97 614 97 606 q 102 631 97 623 q 115 645 107 639 q 133 655 124 651 q 152 659 143 659 q 173 650 165 659 l 454 354 q 465 326 465 343 q 454 298 465 309 l 173 8 q 152 0 167 0 q 133 3 143 0 q 115 13 124 7 q 102 27 107 19 q 97 44 97 35 q 104 62 97 52 l 311 326 "},"ћ":{"x_min":-6.78125,"x_max":706.703125,"ha":818,"o":"m 9 850 l 123 850 l 123 990 q 135 1039 123 1023 q 179 1055 147 1055 q 246 1028 225 1055 q 267 942 267 1002 l 267 850 l 550 850 q 562 839 558 850 q 567 815 567 829 q 562 792 567 802 q 550 782 557 782 l 267 782 l 267 527 l 270 527 q 369 629 309 589 q 511 669 430 669 q 706 459 706 669 l 706 65 q 694 15 706 31 q 651 0 682 0 q 583 26 604 0 q 562 113 562 52 l 562 433 q 444 576 562 576 q 325 521 383 576 q 267 402 267 467 l 267 98 q 247 19 267 39 q 179 0 227 0 q 135 15 147 0 q 123 65 123 31 l 123 782 l 9 782 q -2 791 2 782 q -6 815 -6 801 q 9 850 -6 850 "},"Т":{"x_min":27,"x_max":875,"ha":903,"o":"m 734 912 l 525 912 l 525 83 q 505 17 525 35 q 439 0 485 0 q 376 69 376 0 l 376 912 l 167 912 l 167 813 q 147 743 167 764 q 86 723 127 723 q 27 792 27 723 l 27 933 q 47 974 27 964 q 110 985 67 985 l 791 985 q 854 974 834 985 q 875 933 875 964 l 875 792 q 860 739 875 755 q 815 723 845 723 q 754 743 774 723 q 734 813 734 764 l 734 912 "},"<":{"x_min":76.640625,"x_max":906.78125,"ha":1046,"o":"m 852 68 l 92 444 q 76 482 76 452 q 92 519 76 511 l 852 895 q 859 897 856 897 q 875 889 867 897 q 891 869 884 881 q 902 844 897 857 q 906 819 906 830 q 895 796 906 800 l 247 482 l 895 168 q 906 143 906 163 q 902 119 906 132 q 891 94 897 105 q 876 74 884 82 q 859 66 868 66 q 852 68 856 66 "},"Ц":{"x_min":139.03125,"x_max":983.421875,"ha":1019,"o":"m 843 0 l 202 0 q 139 69 139 0 l 139 915 q 153 969 139 953 q 200 985 167 985 q 266 957 243 985 q 288 877 288 930 l 288 74 l 708 74 l 708 894 q 729 964 708 943 q 794 985 750 985 q 842 968 826 985 q 858 915 858 951 l 858 74 l 900 74 q 963 63 943 74 q 983 22 983 52 l 983 -162 q 923 -232 983 -232 q 863 -210 883 -232 q 843 -141 843 -189 l 843 0 "},"t":{"x_min":30,"x_max":578,"ha":591,"o":"m 295 796 l 295 697 l 450 697 q 487 688 475 697 q 499 666 499 679 q 485 641 499 652 q 450 631 472 631 l 295 631 l 295 187 q 302 130 295 154 q 320 91 309 106 q 346 68 331 75 q 379 61 362 61 q 424 70 406 61 q 456 94 443 80 q 478 126 469 109 q 496 158 487 143 q 515 182 505 172 q 542 192 526 192 q 568 182 558 192 q 578 158 578 173 q 571 130 578 147 q 556 105 564 114 q 471 26 521 52 q 362 0 420 0 q 260 15 301 0 q 195 60 219 31 q 160 130 170 89 q 151 219 151 170 l 151 631 l 74 631 q 40 637 50 631 q 30 659 30 644 q 46 682 30 674 q 88 705 63 691 q 144 743 114 718 q 200 812 174 767 q 216 840 210 829 q 229 858 222 851 q 241 868 235 865 q 258 872 248 872 q 288 855 281 872 q 295 796 295 838 "},"W":{"x_min":35.953125,"x_max":1148.90625,"ha":1179,"o":"m 847 156 l 1029 911 q 1044 948 1036 934 q 1062 971 1052 963 q 1083 982 1072 979 q 1106 985 1094 985 q 1137 974 1125 985 q 1148 947 1148 963 q 1141 913 1148 931 l 909 55 q 823 0 894 0 q 772 12 796 0 q 741 50 748 24 l 596 718 l 592 718 l 432 55 q 345 0 417 0 q 294 12 317 0 q 263 50 270 24 l 41 902 q 35 933 35 919 q 50 970 35 955 q 94 985 65 985 q 189 911 166 985 l 360 156 l 369 156 l 534 897 q 562 964 545 944 q 609 985 579 985 q 680 901 662 985 l 838 156 l 847 156 "},"а":{"x_min":60,"x_max":657.46875,"ha":758,"o":"m 518 131 l 514 132 q 409 31 468 63 q 269 0 350 0 q 178 13 218 0 q 112 50 139 26 q 73 109 86 75 q 60 187 60 144 q 75 275 60 232 q 129 354 90 319 q 237 409 169 388 q 409 431 304 431 l 511 431 l 511 469 q 503 549 511 516 q 478 602 495 582 q 435 631 462 622 q 372 641 409 641 q 250 582 303 641 q 165 534 205 534 q 129 547 142 534 q 116 581 116 561 q 142 629 116 608 q 207 665 167 650 q 298 688 247 680 q 400 697 348 697 q 525 681 475 697 q 604 634 574 665 q 645 556 633 603 q 657 445 657 509 l 657 65 q 645 15 657 31 q 603 0 634 0 q 538 30 557 0 q 518 131 518 61 m 513 373 l 432 373 q 204 206 204 373 q 325 92 204 92 q 384 102 351 92 q 445 132 416 112 q 493 184 474 153 q 513 255 513 214 l 513 373 "},"Ф":{"x_min":62.390625,"x_max":1102.796875,"ha":1165,"o":"m 657 915 l 657 821 q 734 817 696 821 q 817 805 772 814 q 902 780 863 795 q 979 740 942 766 q 1043 681 1017 715 q 1086 600 1070 648 q 1102 494 1102 552 q 990 248 1102 337 q 657 160 877 160 l 657 84 q 638 18 657 37 q 580 0 619 0 q 525 17 542 0 q 508 70 508 34 l 508 160 q 174 248 287 160 q 62 494 62 337 q 78 600 62 552 q 121 681 94 648 q 185 740 147 715 q 262 780 223 766 q 346 805 301 795 q 429 817 392 814 q 507 821 467 821 l 507 901 q 526 967 507 949 q 587 985 546 985 q 640 968 623 985 q 657 915 657 951 m 655 750 l 655 231 q 769 245 718 231 q 861 290 820 260 q 924 372 902 321 q 947 494 947 424 q 874 679 947 608 q 655 750 800 750 m 510 231 l 510 750 q 291 679 364 750 q 218 494 218 608 q 240 372 218 424 q 303 290 263 321 q 396 245 344 260 q 510 231 447 231 "},">":{"x_min":132.25,"x_max":962.390625,"ha":1095,"o":"m 946 444 l 185 68 q 179 66 181 66 q 161 74 170 66 q 146 93 153 82 q 136 118 140 105 q 132 143 132 131 q 143 168 132 163 l 791 482 l 143 796 q 132 819 132 800 q 136 844 132 831 q 147 869 140 858 q 162 889 153 881 q 179 897 170 897 q 185 895 181 897 l 946 519 q 962 482 962 511 q 946 444 962 453 "},"v":{"x_min":41.375,"x_max":669.40625,"ha":711,"o":"m 625 697 q 669 665 669 697 q 662 627 669 642 l 430 34 q 349 0 417 0 q 276 34 289 0 l 48 627 q 41 659 41 644 q 92 697 41 697 q 159 674 129 697 q 206 604 189 651 l 375 136 l 381 136 l 476 387 q 547 610 507 470 q 575 674 558 652 q 625 697 591 697 "},"Ї":{"x_min":27.59375,"x_max":538.96875,"ha":567,"o":"m 496 0 l 68 0 q 27 32 27 0 q 39 62 27 51 q 83 73 50 73 l 208 73 l 208 912 l 83 912 q 39 922 50 912 q 27 952 27 933 q 68 985 27 985 l 496 985 q 538 952 538 985 q 483 912 538 912 l 357 912 l 357 73 l 483 73 q 538 32 538 73 q 496 0 538 0 m 334 1181 q 362 1249 334 1221 q 428 1277 390 1277 q 495 1249 466 1277 q 525 1181 525 1221 q 495 1116 525 1145 q 428 1087 465 1087 q 362 1116 391 1087 q 334 1181 334 1145 m 46 1183 q 74 1250 46 1221 q 139 1279 103 1279 q 207 1250 178 1279 q 237 1183 237 1222 q 207 1117 237 1146 q 139 1089 178 1089 q 74 1117 103 1089 q 46 1183 46 1146 "},"О":{"x_min":74,"x_max":921.34375,"ha":994,"o":"m 921 491 q 916 406 921 456 q 896 301 911 356 q 853 192 882 246 q 778 96 825 139 q 662 26 731 53 q 495 0 592 0 q 329 27 398 0 q 213 98 259 54 q 138 196 166 141 q 96 305 110 251 q 78 409 82 360 q 74 491 74 458 q 78 578 74 527 q 98 683 83 628 q 141 792 113 738 q 216 889 169 846 q 331 958 263 932 q 495 985 400 985 q 660 958 591 985 q 776 887 729 931 q 852 790 824 844 q 896 681 881 736 q 916 576 911 626 q 921 491 921 526 m 495 914 q 394 892 436 914 q 322 837 352 871 q 275 759 293 803 q 247 668 257 714 q 234 575 237 621 q 230 491 230 529 q 233 416 230 459 q 244 325 236 372 q 271 233 253 279 q 317 151 288 187 q 390 93 347 115 q 495 71 434 71 q 598 92 555 72 q 671 146 641 113 q 719 222 700 179 q 747 311 737 265 q 760 404 757 358 q 764 491 764 451 q 761 568 764 524 q 750 659 759 612 q 724 752 741 706 q 677 833 707 797 q 602 891 647 869 q 495 914 558 914 "},"&":{"x_min":77,"x_max":837.890625,"ha":900,"o":"m 666 257 q 686 292 675 269 q 711 348 698 315 q 733 381 721 370 q 762 393 744 393 q 794 383 782 393 q 806 360 806 374 q 800 332 806 348 q 788 300 795 316 q 773 271 780 284 q 761 250 766 258 q 725 197 748 226 l 823 73 q 837 40 837 55 q 822 10 837 21 q 779 0 806 0 q 747 2 761 0 q 722 8 733 4 q 702 21 711 13 q 685 38 693 28 l 637 98 q 581 53 610 71 q 523 22 553 34 q 457 5 492 10 q 380 0 422 0 q 254 19 310 0 q 158 74 198 39 q 98 161 119 110 q 77 273 77 211 q 88 355 77 318 q 124 426 99 392 q 189 489 148 459 q 289 551 230 520 q 254 604 270 575 q 225 661 238 632 q 206 717 213 690 q 199 766 199 744 q 215 853 199 813 q 262 922 231 893 q 335 968 292 951 q 432 985 378 985 q 522 970 483 985 q 589 931 562 955 q 630 872 616 906 q 644 801 644 839 q 631 722 644 757 q 593 657 618 687 q 532 601 567 627 q 450 547 496 574 l 666 257 m 392 72 q 499 97 453 72 q 586 165 544 122 l 336 490 q 274 437 297 461 q 238 389 250 414 q 222 333 226 364 q 218 259 218 303 q 231 190 218 223 q 267 129 244 156 q 322 87 291 103 q 392 72 354 72 m 338 778 q 403 603 338 691 q 505 690 473 645 q 538 796 538 735 q 530 844 538 822 q 510 881 523 865 q 480 906 498 897 q 443 916 463 916 q 398 905 418 916 q 365 876 378 894 q 345 832 352 858 q 338 778 338 807 "},"I":{"x_min":27.59375,"x_max":538.96875,"ha":567,"o":"m 496 0 l 68 0 q 27 32 27 0 q 39 62 27 51 q 83 73 50 73 l 208 73 l 208 912 l 83 912 q 39 922 50 912 q 27 952 27 933 q 68 985 27 985 l 496 985 q 538 952 538 985 q 483 912 538 912 l 357 912 l 357 73 l 483 73 q 538 32 538 73 q 496 0 538 0 "},"G":{"x_min":74,"x_max":846.8125,"ha":945,"o":"m 741 735 q 680 755 700 735 q 660 825 660 776 l 660 902 q 548 914 615 914 q 420 885 479 914 q 320 803 362 857 q 254 668 278 748 q 230 482 230 587 q 251 286 230 365 q 310 159 271 207 q 405 91 349 111 q 534 71 462 71 q 701 98 631 71 l 701 399 l 545 399 q 519 410 528 399 q 511 436 511 421 q 520 463 511 452 q 549 475 530 475 l 785 475 q 834 461 822 475 q 846 419 846 448 l 846 132 q 844 99 846 112 q 835 76 841 85 q 822 61 830 67 q 802 51 814 55 q 508 0 671 0 q 311 33 393 0 q 176 129 229 67 q 98 282 123 192 q 74 485 74 372 q 109 707 74 613 q 207 863 145 801 q 353 954 269 924 q 531 985 436 985 q 603 981 563 985 q 681 971 643 978 q 747 954 718 964 q 789 930 777 944 q 801 886 801 916 l 801 804 q 741 735 801 735 "},"`":{"x_min":195,"x_max":424,"ha":840,"o":"m 335 813 l 199 993 q 195 1006 195 997 q 214 1030 195 1021 q 269 1040 234 1040 q 318 1030 296 1040 q 348 1004 341 1021 l 421 830 q 424 817 424 825 q 413 798 424 805 q 386 791 402 791 q 335 813 352 791 "},"Х":{"x_min":41.375,"x_max":776.5625,"ha":818,"o":"m 432 603 l 609 911 q 653 967 632 950 q 698 985 674 985 q 728 975 715 985 q 740 951 740 966 q 725 909 740 932 l 491 530 l 765 83 q 773 64 770 73 q 776 44 776 55 q 761 13 776 26 q 722 0 746 0 q 686 4 701 0 q 656 16 670 8 q 632 38 643 25 q 609 71 621 52 l 401 426 l 396 426 l 177 75 q 151 37 164 52 q 128 14 139 23 q 106 3 117 6 q 83 0 95 0 q 51 8 62 0 q 41 30 41 17 q 56 75 41 48 l 335 508 l 96 904 q 87 937 87 918 q 103 970 87 956 q 141 985 119 985 q 202 966 176 985 q 250 911 229 947 l 423 603 l 432 603 "},"r":{"x_min":111,"x_max":561,"ha":549,"o":"m 561 637 q 507 583 561 583 l 461 583 q 367 568 406 583 q 303 528 328 553 q 267 473 278 504 q 255 409 255 442 l 255 98 q 250 49 255 68 q 235 19 245 30 q 207 4 224 8 q 166 0 191 0 q 122 15 134 0 q 111 65 111 31 l 111 637 q 124 683 111 670 q 170 697 138 697 q 231 667 209 697 q 252 577 252 637 l 252 543 l 255 543 q 286 589 267 563 q 332 640 305 616 q 396 680 360 664 q 479 697 432 697 l 495 697 q 545 682 530 697 q 561 637 559 667 "},"ж":{"x_min":27.8125,"x_max":1001.734375,"ha":1030,"o":"m 444 396 l 444 631 q 458 679 444 661 q 512 697 473 697 q 567 680 550 697 q 584 612 584 664 l 584 396 l 625 396 l 844 640 q 946 697 895 697 q 984 662 984 697 q 961 618 984 640 q 891 562 937 597 q 813 493 845 527 q 765 441 794 474 q 715 389 735 409 l 978 70 q 1001 26 1001 44 q 989 6 1001 13 q 935 0 976 0 q 870 10 891 0 q 833 42 849 20 l 613 334 l 584 334 l 584 84 q 566 17 584 35 q 512 0 549 0 q 458 15 472 0 q 444 65 444 31 l 444 334 l 415 334 l 196 42 q 158 10 179 20 q 92 0 137 0 q 40 6 52 0 q 27 26 27 13 q 51 70 27 45 l 314 389 q 265 440 295 407 q 215 493 236 472 q 137 562 183 527 q 68 618 91 597 q 44 662 44 640 q 83 697 44 697 q 184 640 133 697 l 404 396 l 444 396 "},"x":{"x_min":48.828125,"x_max":622.609375,"ha":671,"o":"m 66 69 l 269 339 l 92 609 q 78 638 82 624 q 73 663 73 652 q 87 688 73 680 q 118 697 100 697 q 185 680 160 697 q 231 627 210 663 l 352 426 l 358 426 l 497 651 q 530 687 513 678 q 576 697 548 697 q 611 670 611 697 q 596 627 611 652 l 411 370 l 605 76 q 622 35 622 48 q 571 0 622 0 q 532 4 548 0 q 503 16 516 8 q 481 36 491 24 q 461 66 472 49 l 326 276 l 323 276 l 166 40 q 134 8 151 17 q 86 0 117 0 q 48 27 48 0 q 66 69 48 46 "},"Ђ":{"x_min":27.8125,"x_max":1074.984375,"ha":1158,"o":"m 723 530 q 625 514 679 530 q 526 468 571 498 l 526 82 q 505 17 526 35 q 440 0 485 0 q 376 69 376 0 l 376 911 l 168 911 l 168 812 q 148 743 168 764 q 87 722 128 722 q 27 791 27 722 l 27 933 q 47 974 27 963 q 111 985 67 985 l 791 985 q 854 974 834 985 q 874 933 874 963 l 874 798 q 860 745 874 762 q 815 728 845 728 q 754 749 774 728 q 734 819 734 771 l 734 911 l 526 911 l 526 553 q 762 608 644 608 q 1074 313 1074 608 q 1048 185 1074 245 q 980 85 1022 125 q 886 22 938 45 q 780 0 834 0 q 734 33 734 0 q 751 67 734 53 q 794 84 767 81 q 830 94 813 87 q 864 117 847 100 q 892 158 881 134 q 910 222 903 183 q 918 315 918 262 q 869 474 918 418 q 723 530 821 530 "},"с":{"x_min":69,"x_max":652.59375,"ha":681,"o":"m 585 175 q 620 191 601 191 q 642 182 632 191 q 652 161 652 174 q 634 114 652 136 q 382 0 541 0 q 236 25 296 0 q 139 97 176 51 q 85 208 102 144 q 69 347 69 271 q 94 510 69 443 q 164 618 119 576 q 269 678 209 659 q 398 697 329 697 q 489 684 445 697 q 565 651 532 672 q 617 604 598 631 q 637 548 637 577 q 631 525 637 536 q 618 508 626 515 q 600 497 610 501 q 578 494 589 494 q 530 508 548 494 q 503 552 512 523 q 487 588 496 572 q 465 616 478 605 q 435 634 452 628 q 395 641 418 641 q 320 627 353 641 q 264 579 287 613 q 231 488 242 545 q 219 346 219 432 q 229 221 219 275 q 259 132 238 168 q 315 78 281 96 q 398 61 349 61 q 456 68 431 61 q 500 88 481 75 q 536 117 520 101 q 567 153 552 134 l 585 175 "},"h":{"x_min":111,"x_max":694.46875,"ha":806,"o":"m 255 941 l 255 555 l 258 555 q 302 612 277 586 q 357 657 327 638 q 423 686 387 675 q 498 697 458 697 q 694 487 694 697 l 694 65 q 682 15 694 31 q 638 0 671 0 q 571 26 592 0 q 550 114 550 52 l 550 461 q 431 605 550 605 q 374 591 405 605 q 317 554 343 577 q 273 499 290 530 q 255 431 255 467 l 255 98 q 250 49 255 68 q 235 19 245 30 q 207 4 224 8 q 166 0 191 0 q 122 15 134 0 q 111 65 111 31 l 111 989 q 122 1039 111 1024 q 166 1055 134 1055 q 234 1028 213 1055 q 255 941 255 1002 "},"я":{"x_min":41.375,"x_max":612.4375,"ha":724,"o":"m 41 26 q 66 70 41 40 l 269 302 q 127 362 180 310 q 75 484 75 415 q 142 641 75 585 q 341 697 209 697 l 556 697 q 600 681 588 697 q 612 631 612 665 l 612 65 q 600 15 612 31 q 556 0 588 0 q 489 26 510 0 q 467 114 467 52 l 467 296 l 411 296 l 213 42 q 174 10 196 20 q 108 0 153 0 q 64 4 80 0 q 45 13 48 8 q 41 26 41 18 m 221 483 q 261 392 221 427 q 370 358 301 358 l 467 358 l 467 635 l 369 635 q 260 593 299 635 q 221 483 221 552 "},".":{"x_min":83,"x_max":294,"ha":378,"o":"m 83 106 q 91 150 83 130 q 113 185 99 170 q 147 207 127 199 q 188 216 166 216 q 230 207 211 216 q 263 184 249 199 q 285 149 277 169 q 294 106 294 130 q 286 65 294 84 q 264 31 278 46 q 230 8 249 16 q 188 0 211 0 q 147 8 167 0 q 114 30 128 16 q 91 64 99 44 q 83 106 83 83 "},"Ё":{"x_min":139,"x_max":779,"ha":835,"o":"m 698 744 q 637 764 656 744 q 617 834 617 785 l 617 912 l 288 912 l 288 547 l 580 547 q 608 535 598 547 q 619 508 619 523 q 615 494 619 501 q 606 482 612 487 q 594 473 601 476 q 580 470 587 470 l 288 470 l 288 73 l 638 73 l 638 150 q 658 220 638 199 q 719 241 677 241 q 764 224 749 241 q 779 171 779 208 l 779 51 q 759 10 779 20 q 695 0 739 0 l 202 0 q 139 69 139 0 l 139 915 q 202 985 139 985 l 674 985 q 738 974 718 985 q 758 933 758 964 l 758 813 q 743 760 758 776 q 698 744 728 744 m 491 1181 q 519 1249 491 1221 q 585 1277 547 1277 q 652 1249 623 1277 q 682 1181 682 1221 q 652 1116 682 1145 q 585 1087 622 1087 q 519 1116 548 1087 q 491 1181 491 1145 m 203 1183 q 231 1250 203 1221 q 296 1279 260 1279 q 364 1250 335 1279 q 394 1183 394 1222 q 364 1117 394 1146 q 296 1089 335 1089 q 231 1117 260 1089 q 203 1183 203 1146 "},";":{"x_min":83,"x_max":295.359375,"ha":383,"o":"m 84 578 q 92 622 84 601 q 114 657 100 642 q 148 679 129 671 q 190 688 167 688 q 231 679 212 688 q 265 656 251 671 q 287 621 279 641 q 295 578 295 601 q 287 536 295 555 q 265 502 279 517 q 231 479 251 487 q 190 471 212 471 q 149 479 168 471 q 115 501 129 487 q 92 535 101 515 q 84 578 84 555 m 113 -94 l 166 17 q 123 32 140 21 q 98 57 107 43 q 86 88 89 72 q 83 116 83 103 q 92 159 83 140 q 117 190 102 178 q 152 209 133 203 q 192 216 172 216 q 230 209 211 216 q 262 191 248 203 q 285 162 277 179 q 294 123 294 144 q 264 18 294 79 l 206 -105 q 154 -143 190 -143 q 124 -132 137 -143 q 110 -107 110 -121 q 113 -94 110 -100 "},"f":{"x_min":33.28125,"x_max":606,"ha":490,"o":"m 33 647 q 76 685 33 682 l 155 685 q 168 801 158 752 q 194 885 179 850 q 229 945 209 921 q 268 985 248 969 q 469 1055 352 1055 q 524 1048 499 1055 q 567 1031 549 1042 q 595 1007 585 1021 q 606 978 606 993 q 591 943 606 956 q 550 930 576 930 q 487 970 521 930 q 458 992 475 985 q 421 1000 441 1000 q 376 991 398 1000 q 336 960 354 982 q 308 899 319 937 q 298 802 298 861 l 298 685 l 453 685 q 489 676 477 685 q 501 654 501 667 q 488 628 501 639 q 453 618 474 618 l 298 618 l 298 94 q 293 46 298 64 q 278 17 288 27 q 250 3 267 7 q 209 0 234 0 q 166 15 178 0 q 154 65 154 31 l 154 618 l 78 618 q 33 647 33 618 "},"“":{"x_min":83,"x_max":563,"ha":647,"o":"m 529 987 l 477 876 q 521 860 504 871 q 547 833 538 848 q 559 803 556 819 q 563 776 563 788 q 553 732 563 751 q 528 701 544 713 q 493 682 513 688 q 453 676 474 676 q 415 682 434 676 q 383 700 397 688 q 360 730 368 712 q 352 770 352 747 q 381 874 352 812 l 439 998 q 491 1036 456 1036 q 520 1025 508 1036 q 532 1000 532 1014 q 529 987 532 994 m 260 987 l 208 876 q 252 860 235 871 q 278 833 268 848 q 290 803 287 819 q 294 776 294 788 q 284 732 294 751 q 259 701 275 713 q 224 682 243 688 q 184 676 204 676 q 146 682 164 676 q 114 700 128 688 q 91 729 99 711 q 83 769 83 747 q 90 818 83 791 q 112 874 97 844 l 170 998 q 222 1036 187 1036 q 251 1025 239 1036 q 263 1000 263 1014 q 260 987 263 994 "},"Г":{"x_min":139.03125,"x_max":744.6875,"ha":765,"o":"m 288 911 l 288 90 q 267 20 288 41 q 202 0 246 0 q 139 69 139 0 l 139 915 q 202 985 139 985 l 661 985 q 724 945 704 985 q 744 796 744 905 l 744 253 q 730 60 744 121 q 685 0 715 0 q 624 98 644 0 q 604 420 604 196 l 604 911 l 288 911 "},"A":{"x_min":58.328125,"x_max":873.546875,"ha":937,"o":"m 251 263 l 180 73 q 142 14 163 29 q 95 0 120 0 q 67 10 75 0 q 58 38 58 21 q 65 71 58 52 l 392 951 q 418 976 398 968 q 467 985 439 985 q 522 975 498 985 q 552 947 545 965 l 870 66 q 873 46 873 54 q 860 13 873 26 q 819 0 847 0 q 715 73 741 0 l 641 263 l 251 263 m 620 336 l 453 820 l 444 820 l 273 336 l 620 336 "},"6":{"x_min":69,"x_max":680.921875,"ha":736,"o":"m 586 746 q 529 765 546 746 q 513 832 513 784 l 513 899 q 426 914 479 914 q 356 898 392 914 q 288 842 319 882 q 238 733 258 802 q 218 558 218 664 l 218 500 q 259 558 235 534 q 311 595 283 581 q 368 616 338 610 q 426 623 398 623 q 535 601 487 623 q 615 540 582 579 q 664 446 647 501 q 680 323 680 390 q 659 189 680 249 q 599 87 638 129 q 506 22 560 45 q 385 0 452 0 q 271 17 320 0 q 187 64 222 34 q 129 136 151 94 q 93 226 106 177 q 74 328 79 274 q 69 437 69 382 q 82 637 69 552 q 120 783 96 723 q 177 883 145 844 q 250 945 210 922 q 333 976 289 968 q 421 985 376 985 q 588 954 504 985 q 607 946 597 951 q 626 933 618 941 q 640 913 635 925 q 646 883 646 901 l 646 812 q 631 761 646 777 q 586 746 616 746 m 385 533 q 324 518 353 533 q 274 474 296 503 q 241 405 253 446 q 229 312 229 364 q 236 231 229 274 q 260 153 243 188 q 307 94 277 117 q 381 71 336 71 q 529 325 529 71 q 492 484 529 435 q 385 533 455 533 "},"‘":{"x_min":83,"x_max":294,"ha":378,"o":"m 260 987 l 208 876 q 252 860 235 871 q 278 833 268 848 q 290 803 287 819 q 294 776 294 788 q 284 732 294 751 q 259 701 275 713 q 224 682 243 688 q 184 676 204 676 q 146 682 164 676 q 114 700 128 688 q 91 729 99 711 q 83 769 83 747 q 90 818 83 791 q 112 874 97 844 l 170 998 q 222 1036 187 1036 q 251 1025 239 1036 q 263 1000 263 1014 q 260 987 263 994 "},"Ь":{"x_min":139.03125,"x_max":812.515625,"ha":875,"o":"m 288 877 l 288 551 l 469 551 q 611 537 550 551 q 717 494 671 524 q 788 409 764 463 q 812 277 812 355 q 799 187 812 228 q 765 118 786 146 q 714 68 744 90 q 653 33 684 46 q 587 13 622 21 q 523 2 552 5 q 466 0 495 0 l 202 0 q 139 69 139 0 l 139 915 q 153 969 139 953 q 200 985 167 985 q 266 957 243 985 q 288 877 288 930 m 441 478 l 287 478 l 287 74 l 448 74 q 505 79 478 74 q 561 98 533 84 q 609 133 589 111 q 642 192 630 156 q 655 278 655 229 q 600 432 655 387 q 441 478 545 478 "},"O":{"x_min":74,"x_max":921.34375,"ha":994,"o":"m 921 491 q 916 406 921 456 q 896 301 911 356 q 853 192 882 246 q 778 96 825 139 q 662 26 731 53 q 495 0 592 0 q 329 27 398 0 q 213 98 259 54 q 138 196 166 141 q 96 305 110 251 q 78 409 82 360 q 74 491 74 458 q 78 578 74 527 q 98 683 83 628 q 141 792 113 738 q 216 889 169 846 q 331 958 263 932 q 495 985 400 985 q 660 958 591 985 q 776 887 729 931 q 852 790 824 844 q 896 681 881 736 q 916 576 911 626 q 921 491 921 526 m 495 914 q 394 892 436 914 q 322 837 352 871 q 275 759 293 803 q 247 668 257 714 q 234 575 237 621 q 230 491 230 529 q 233 416 230 459 q 244 325 236 372 q 271 233 253 279 q 317 151 288 187 q 390 93 347 115 q 495 71 434 71 q 598 92 555 72 q 671 146 641 113 q 719 222 700 179 q 747 311 737 265 q 760 404 757 358 q 764 491 764 451 q 761 568 764 524 q 750 659 759 612 q 724 752 741 706 q 677 833 707 797 q 602 891 647 869 q 495 914 558 914 "},"n":{"x_min":111,"x_max":694.46875,"ha":806,"o":"m 111 65 l 111 637 q 124 683 111 670 q 170 697 138 697 q 231 667 209 697 q 252 577 252 637 l 252 568 l 255 568 q 353 662 292 627 q 498 697 414 697 q 694 487 694 697 l 694 65 q 682 15 694 31 q 638 0 671 0 q 571 26 592 0 q 550 114 550 52 l 550 461 q 431 605 550 605 q 370 592 401 605 q 313 557 338 579 q 271 505 288 535 q 255 444 255 476 l 255 98 q 250 49 255 68 q 235 19 245 30 q 207 4 224 8 q 166 0 191 0 q 122 15 134 0 q 111 65 111 31 "},"3":{"x_min":41,"x_max":660.984375,"ha":736,"o":"m 101 296 q 157 275 140 296 q 174 205 174 255 l 174 106 q 316 71 234 71 q 391 83 357 71 q 451 122 426 96 q 490 188 476 148 q 505 279 505 227 q 490 374 505 336 q 448 434 475 411 q 384 465 422 456 q 300 475 346 475 l 260 475 q 244 486 251 475 q 238 513 238 498 q 244 540 238 528 q 260 552 251 552 l 300 552 q 476 746 476 552 q 464 820 476 788 q 432 873 453 852 q 382 903 412 893 q 317 914 353 914 q 188 880 249 914 l 188 780 q 171 711 188 731 q 114 691 155 691 q 55 760 55 691 l 55 843 q 61 881 55 867 q 86 905 68 894 q 215 966 152 947 q 352 985 278 985 q 474 967 422 985 q 561 918 526 949 q 612 843 595 886 q 629 746 629 799 q 615 666 629 703 q 577 601 601 629 q 521 554 553 572 q 454 528 490 535 l 454 515 q 537 492 499 509 q 603 446 576 475 q 645 376 630 417 q 660 281 660 335 q 637 165 660 217 q 570 76 613 113 q 466 20 527 40 q 333 0 406 0 q 73 71 194 0 q 41 143 41 90 l 41 226 q 55 279 41 263 q 101 296 70 296 "},"9":{"x_min":55,"x_max":666.375,"ha":736,"o":"m 149 239 q 206 219 190 239 q 223 152 223 200 l 223 85 q 313 71 256 71 q 385 88 349 71 q 451 148 421 106 q 499 257 480 189 q 517 426 517 325 l 517 485 q 479 430 502 453 q 429 392 456 407 q 372 370 403 377 q 310 363 342 363 q 200 385 248 363 q 120 447 153 407 q 71 542 88 487 q 55 665 55 598 q 78 800 55 741 q 142 901 101 860 q 240 963 183 942 q 365 985 297 985 q 482 967 433 985 q 564 917 531 949 q 617 844 597 886 q 648 755 637 803 q 662 657 659 708 q 666 556 666 606 q 315 0 666 0 q 146 30 232 0 q 105 55 121 40 q 90 101 90 70 l 90 172 q 149 239 90 239 m 350 452 q 412 467 384 452 q 462 511 441 483 q 495 580 483 540 q 507 672 507 621 q 501 752 507 710 q 480 830 496 794 q 437 889 464 865 q 363 914 409 912 q 248 853 291 914 q 206 664 206 792 q 350 452 206 452 "},"l":{"x_min":118,"x_max":262.46875,"ha":380,"o":"m 262 941 l 262 94 q 257 46 262 64 q 242 17 252 27 q 214 3 231 7 q 173 0 198 0 q 129 15 141 0 q 118 65 118 31 l 118 989 q 129 1039 118 1024 q 173 1055 141 1055 q 241 1028 220 1055 q 262 941 262 1002 "},"4":{"x_min":-10,"x_max":721.921875,"ha":736,"o":"m 325 73 l 433 73 l 433 240 l 28 240 q -10 272 -10 240 q 0 306 -10 285 l 411 933 q 509 985 444 985 q 563 968 546 985 q 580 915 580 952 l 580 313 l 666 313 q 710 302 698 313 q 721 272 721 291 q 680 240 721 240 l 580 240 l 580 73 l 659 73 q 715 32 715 73 q 673 0 715 0 l 312 0 q 270 32 270 0 q 325 73 270 73 m 433 313 l 433 803 l 106 313 l 433 313 "},"p":{"x_min":111,"x_max":712.5625,"ha":786,"o":"m 111 -240 l 111 637 q 165 697 111 697 q 231 668 210 697 q 252 577 252 640 l 252 566 l 254 566 q 294 621 272 597 q 342 662 316 646 q 401 688 369 679 q 474 697 434 697 q 712 383 712 697 q 689 215 712 287 q 624 96 667 144 q 520 24 581 48 q 381 0 458 0 q 255 26 311 0 l 255 -206 q 250 -256 255 -236 q 235 -286 245 -275 q 207 -301 224 -297 q 166 -306 191 -306 q 122 -290 134 -306 q 111 -240 111 -274 m 562 372 q 551 486 562 442 q 521 557 540 531 q 476 594 503 583 q 418 605 450 605 q 361 590 390 605 q 308 553 332 576 q 269 501 284 531 q 254 442 254 472 l 254 140 q 262 109 254 125 q 288 82 271 94 q 328 63 304 70 q 381 56 352 56 q 455 71 422 56 q 512 124 489 87 q 549 221 536 161 q 562 372 562 282 "},"Ъ":{"x_min":10.859375,"x_max":1004.453125,"ha":1053,"o":"m 330 911 l 151 911 l 151 812 q 131 743 151 764 q 70 722 111 722 q 10 791 10 722 l 10 933 q 30 974 10 963 q 94 985 50 985 l 416 985 q 464 968 448 985 q 480 915 480 951 l 480 551 l 661 551 q 803 537 742 551 q 909 494 863 524 q 980 409 956 463 q 1004 277 1004 355 q 991 187 1004 228 q 957 118 978 146 q 906 68 935 90 q 845 33 876 46 q 779 13 814 21 q 715 2 744 5 q 658 0 687 0 l 394 0 q 346 16 362 0 q 330 69 330 33 l 330 911 m 633 478 l 479 478 l 479 74 l 640 74 q 697 79 670 74 q 752 98 724 84 q 800 133 780 111 q 834 192 821 156 q 847 278 847 229 q 792 432 847 387 q 633 478 737 478 "},"‡":{"x_min":55.609375,"x_max":588.703125,"ha":644,"o":"m 261 546 l 94 546 q 65 562 75 546 q 55 601 55 578 q 65 640 55 624 q 94 657 75 657 l 261 657 l 261 945 q 279 975 261 964 q 322 986 297 986 q 364 975 346 986 q 383 945 383 964 l 383 657 l 550 657 q 578 640 567 657 q 588 601 588 623 q 578 562 588 579 q 550 546 567 546 l 383 546 l 383 312 l 550 312 q 578 295 567 312 q 588 256 588 278 q 578 217 588 234 q 550 201 567 201 l 383 201 l 383 -87 q 365 -117 383 -107 q 322 -128 347 -128 q 279 -117 297 -128 q 261 -87 261 -107 l 261 201 l 94 201 q 65 217 75 201 q 55 256 55 233 q 65 295 55 279 q 94 312 75 312 l 261 312 l 261 546 "},"₴":{"x_min":35.484375,"x_max":699.453125,"ha":736,"o":"m 420 600 q 466 636 445 617 q 502 676 487 655 q 527 722 518 697 q 536 777 536 747 q 523 844 536 818 q 488 886 510 870 q 440 907 467 901 q 385 913 413 913 q 277 897 327 913 q 184 860 228 882 q 160 848 167 852 q 146 845 153 845 q 122 858 131 845 q 113 886 113 872 q 126 907 113 896 q 160 928 138 918 q 211 949 182 939 q 273 967 240 959 q 340 980 306 975 q 407 985 375 985 q 514 973 464 985 q 601 937 564 961 q 659 874 638 913 q 680 781 680 835 q 673 728 680 754 q 655 679 666 702 q 627 636 643 656 q 592 600 611 616 l 670 600 q 692 589 685 600 q 699 565 699 579 q 692 541 699 551 q 670 531 685 531 l 510 531 q 455 490 482 508 q 396 450 428 472 l 670 450 q 692 439 685 450 q 699 414 699 429 q 692 390 699 400 q 670 381 685 381 l 299 381 q 231 307 256 349 q 206 206 206 266 q 216 153 206 178 q 247 110 227 128 q 297 82 268 92 q 365 72 327 72 q 490 83 430 72 q 613 126 551 94 q 621 130 616 127 q 633 136 627 133 q 645 140 639 138 q 654 143 650 143 q 675 130 665 143 q 685 103 684 117 q 670 79 685 91 q 630 55 656 67 q 571 33 605 44 q 501 16 538 23 q 425 4 464 8 q 350 0 386 0 q 231 13 284 0 q 141 55 178 27 q 85 124 105 82 q 66 220 66 165 q 84 307 66 267 q 134 381 103 347 l 64 381 q 42 390 50 381 q 35 414 35 400 q 42 439 35 429 q 64 450 50 450 l 213 450 q 257 483 232 463 q 324 531 283 502 l 64 531 q 42 541 50 531 q 35 565 35 551 q 42 589 35 579 q 64 600 50 600 l 420 600 "},"⁴":{"x_min":7,"x_max":449.65625,"ha":500,"o":"m 214 484 l 255 484 l 255 566 l 45 566 q 7 589 7 566 q 15 611 7 599 l 245 953 q 314 985 267 985 q 356 974 343 985 q 368 940 368 964 l 368 619 l 403 619 q 440 611 432 619 q 449 589 449 603 q 441 572 449 578 q 409 566 434 566 l 368 566 l 368 484 l 398 484 q 445 454 445 484 q 437 435 445 442 q 405 428 429 428 l 206 428 q 163 454 163 428 q 175 475 163 466 q 214 484 187 484 m 255 619 l 255 853 l 101 619 l 255 619 "},"Ю":{"x_min":139.03125,"x_max":1296.078125,"ha":1369,"o":"m 1296 491 q 1293 416 1296 453 q 1279 328 1289 379 q 1250 234 1268 278 q 1201 146 1233 190 q 1126 70 1169 101 q 1019 19 1083 39 q 877 0 955 0 q 740 17 802 0 q 636 65 678 35 q 562 135 594 94 q 512 218 530 176 q 482 307 494 259 q 467 393 471 356 q 462 470 463 430 l 288 470 l 288 90 q 267 20 288 41 q 202 0 246 0 q 139 69 139 0 l 139 915 q 153 969 139 953 q 200 985 167 985 q 266 957 243 985 q 288 877 288 930 l 288 547 l 463 547 q 471 623 465 586 q 491 705 477 660 q 524 788 504 750 q 576 864 543 826 q 649 927 609 901 q 749 969 690 953 q 877 985 807 985 q 1019 964 955 985 q 1126 913 1083 944 q 1201 837 1169 881 q 1250 748 1233 792 q 1279 653 1268 704 q 1293 566 1289 603 q 1296 491 1296 529 m 1138 491 q 877 914 1138 914 q 787 897 828 914 q 721 855 747 880 q 675 791 695 829 q 645 717 655 753 q 628 636 634 680 q 620 559 622 591 q 619 491 619 527 q 877 71 619 71 q 1138 491 1138 71 "}}}
